<svg width="304" height="300" viewBox="0 0 304 300" fill="none" xmlns="http://www.w3.org/2000/svg">
<path d="M191.097 250.188C188.994 251.168 186.88 252.116 184.772 253.022C182.184 254.128 179.6 255.176 177.02 256.166C175.856 256.618 174.697 257.052 173.529 257.47C172.074 258.007 170.627 258.517 169.179 259.012C167.732 259.507 166.285 259.979 164.852 260.436C163.577 260.839 162.296 261.231 161.008 261.611C159.719 261.991 158.396 262.372 157.038 262.752C155.394 263.197 153.777 263.626 152.187 264.039C145.122 265.843 138.241 265.619 131 266.5C121.055 267.647 112.583 268.997 107.379 267.414C87.1515 261.276 68.6776 238.366 56.9342 206.522C55.2432 201.948 53.6944 197.18 52.288 192.22C52.041 191.348 51.7965 190.468 51.5764 189.603C51.2336 188.348 50.9058 187.084 50.5932 185.811C49.8176 182.727 49.1059 179.57 48.4581 176.341C47.8604 173.356 47.3146 170.326 46.8206 167.251C46.4515 164.966 46.1154 162.647 45.8278 160.308L45.7431 159.6C44.9178 153.269 44.3617 146.809 44.0747 140.218C43.9704 137.765 43.8967 135.287 43.8561 132.775L43.8349 131.433C43.8071 127.276 43.898 123.081 44.1075 118.847C44.2131 116.506 44.3607 114.15 44.5504 111.78C44.8889 107.042 45.901 102.38 47.5559 97.9341C47.5831 97.8562 47.6145 97.7799 47.6502 97.7056C48.2518 96.12 48.9462 94.5716 49.73 93.0685C55.7415 81.4915 66.4019 73.4748 79.3745 68.0135C90.6347 63.2684 103.649 60.4394 116.875 58.8892C132.626 57.0388 148.689 56.9834 162.506 57.6197C164.578 57.7099 166.588 57.8213 168.538 57.9216C172.841 58.1924 176.857 58.5152 180.503 58.8626C185.776 59.3526 190.277 59.8877 193.697 60.3275C198.396 60.9449 201.103 61.4029 201.103 61.4029C201.103 61.4029 202.213 61.6549 204.142 62.2523C218.845 66.8271 281.346 91.5127 261.415 176.378C261.227 177.175 261.031 177.984 260.829 178.797C258.579 187.6 254.841 195.948 249.779 203.479C246.698 208.1 243.238 212.454 239.435 216.497C231.05 225.478 220.988 233.278 210.159 239.932C204.004 243.707 197.639 247.131 191.097 250.188Z" fill="#FFA8A8"/>
<circle cx="43.5" cy="102.5" r="20.5" fill="#FFEEEE"/>
<path d="M40.583 108.776H43.355V99.983C43.355 99.719 43.364 99.452 43.382 99.182L41.078 101.153C41.018 101.201 40.958 101.237 40.898 101.261C40.838 101.279 40.781 101.288 40.727 101.288C40.637 101.288 40.556 101.27 40.484 101.234C40.412 101.192 40.358 101.144 40.322 101.09L39.818 100.397L43.652 97.076H44.957V108.776H47.495V110H40.583V108.776Z" fill="#666666"/>
<path d="M236.59 143.873L230.008 144.388L228.043 149.438L236.996 147.62C238.208 147.489 239.991 144.916 239.235 144.185C238.698 143.679 236.59 143.873 236.59 143.873Z" fill="#D6806B"/>
<path d="M224.668 144.401L228.059 149.425L234.517 148.12L227.335 137.353L225.917 138.271C224.939 138.918 224.257 139.928 224.023 141.077C223.789 142.227 224.021 143.422 224.668 144.401Z" fill="#E3AB84"/>
<path d="M230.176 142.146L253.622 123.65L244.669 118.029L226.988 137.378L230.176 142.146Z" fill="#E3AB84"/>
<path fill-rule="evenodd" clip-rule="evenodd" d="M193.272 256.866H200.507C200.798 256.853 201.072 256.725 201.27 256.511C201.468 256.297 201.573 256.014 201.563 255.723V253.793C201.573 253.502 201.468 253.219 201.27 253.005C201.072 252.79 200.798 252.663 200.507 252.65H193.272C192.981 252.663 192.707 252.791 192.51 253.005C192.313 253.219 192.208 253.502 192.219 253.793V255.739C192.213 256.027 192.319 256.306 192.516 256.517C192.712 256.728 192.984 256.853 193.272 256.866Z" fill="#1E3340"/>
<path fill-rule="evenodd" clip-rule="evenodd" d="M199.83 243.982H201.887C202.609 243.982 203.652 244.138 203.652 246.305V253.696C203.652 254.246 203.442 254.905 203.083 255.045C203.038 255.325 202.962 255.598 202.855 255.86C202.131 256.089 201.372 256.185 200.613 256.145C199.945 256.035 198.115 255.055 198.115 255.055C197.955 254.991 197.819 254.876 197.729 254.729C197.639 254.581 197.599 254.409 197.615 254.237C197.607 254.148 197.581 254.062 197.538 253.983C197.496 253.905 197.438 253.836 197.369 253.78C197.299 253.725 197.219 253.684 197.133 253.66C197.047 253.635 196.958 253.629 196.869 253.64C196.154 253.64 194.736 254.246 194.555 254.355C194.374 254.465 194.284 254.668 194.284 255.045C194.284 255.423 192.657 256.238 190.602 256.363C189.293 256.444 185.758 255.889 183.366 255.473C183.838 253.287 185.281 252.61 186.727 252.61H194.499C198.93 252.61 199.83 248.934 199.83 247.057V243.982Z" fill="#1E3340"/>
<path fill-rule="evenodd" clip-rule="evenodd" d="M181.006 256.866H194.283C194.409 256.86 194.527 256.805 194.612 256.713C194.697 256.62 194.741 256.498 194.736 256.373V255.539C194.739 255.476 194.73 255.414 194.709 255.355C194.687 255.297 194.655 255.243 194.613 255.197C194.571 255.15 194.52 255.113 194.464 255.087C194.407 255.06 194.346 255.045 194.283 255.042H181.006C180.943 255.045 180.882 255.059 180.825 255.085C180.769 255.112 180.718 255.149 180.675 255.194C180.633 255.24 180.6 255.294 180.579 255.353C180.557 255.411 180.547 255.473 180.55 255.536V256.369C180.547 256.432 180.556 256.495 180.578 256.553C180.599 256.612 180.632 256.666 180.674 256.713C180.717 256.759 180.768 256.796 180.825 256.822C180.881 256.849 180.943 256.864 181.006 256.866Z" fill="#1E3340"/>
<path fill-rule="evenodd" clip-rule="evenodd" d="M192.672 256.866H203.083C203.209 256.86 203.327 256.805 203.412 256.712C203.496 256.62 203.541 256.498 203.536 256.372V255.539C203.541 255.413 203.496 255.291 203.412 255.198C203.327 255.106 203.209 255.051 203.083 255.045H192.672C192.547 255.051 192.429 255.106 192.344 255.198C192.259 255.291 192.214 255.413 192.219 255.539V256.372C192.214 256.498 192.259 256.62 192.344 256.712C192.429 256.805 192.547 256.86 192.672 256.866Z" fill="#1E3340"/>
<path d="M128.372 270.158C121.52 270.188 114.673 269.76 107.877 268.877C103.25 269.68 97.3539 270.161 90.9273 270.161C76.0569 270.161 64 267.585 64 264.402C64 261.22 76.0569 258.647 90.9273 258.647C91.8745 258.647 92.8114 258.657 93.7378 258.675C99.7116 255.865 112.977 253.898 128.4 253.898C149.407 253.898 166.435 257.539 166.435 262.017C166.435 266.495 149.379 270.158 128.372 270.158Z" fill="#BC88E4"/>
<path d="M213.71 267.26C206.858 267.29 200.011 266.863 193.216 265.98C188.588 266.782 182.692 267.263 176.266 267.263C161.395 267.263 149.338 264.687 149.338 261.505C149.338 258.323 161.395 255.75 176.266 255.75C177.213 255.75 178.15 255.759 179.076 255.778C185.05 252.967 198.315 251 213.738 251C234.745 251 251.773 254.641 251.773 259.119C251.773 263.597 234.717 267.26 213.71 267.26Z" fill="#BC88E4"/>
<path d="M203.068 123.513L208.117 156.126L203.595 247.548H194.871C194.871 247.548 186.346 184.699 188.916 150.203C189.484 142.555 191.379 122.098 191.379 122.098L203.068 123.513Z" fill="#2E3C5A"/>
<path d="M178.408 99.043C178.408 99.043 164.711 127.81 168.415 128.959C172.118 130.108 175.953 130.586 190.118 103.196L178.408 99.043Z" fill="#E3AB84"/>
<path d="M236.241 97.7096C236.241 97.7096 257.163 121.736 253.915 123.837C250.668 125.939 247.092 127.432 226.085 104.861L236.241 97.7096Z" fill="#E3AB84"/>
<path d="M173.767 129.611C164.977 132.556 142.331 116.184 142.256 110.063C142.256 110.063 140.213 108.305 144.251 109.101C148.092 109.86 160.645 111.053 178.267 121.761C178.273 121.761 175.919 128.884 173.767 129.611Z" fill="#E3AB84"/>
<path fill-rule="evenodd" clip-rule="evenodd" d="M188.894 87.0204C188.894 87.0204 185.905 88.0416 184.903 88.9097C183.9 89.7778 172.724 106.8 172.724 106.8L182.664 118.354L190.108 106.644C190.108 106.644 194.187 95.2707 188.894 87.0204Z" fill="white"/>
<path fill-rule="evenodd" clip-rule="evenodd" d="M222.913 86.4147C222.913 86.4147 226.035 86.8519 227.188 87.5171C228.34 88.1822 243.092 104.367 243.092 104.367L233.786 113.942L222.263 102.8C222.263 102.8 223.194 98.3623 222.913 86.4147Z" fill="white"/>
<path d="M193.15 123.85C190.027 121.143 189.075 116.593 189.065 116.546L189.378 116.484C189.378 116.53 190.314 120.977 193.359 123.616L193.15 123.85ZM222.816 123.225L222.622 122.979C224.146 121.786 224.549 117.726 224.552 117.686L224.864 117.717C224.839 117.895 224.437 121.958 222.81 123.232L222.816 123.225ZM188.332 106.987L188.038 106.878C188.075 106.778 191.682 96.7822 187.339 89.8591L187.604 89.6936C192.023 96.7416 188.363 106.878 188.325 106.981L188.332 106.987ZM226.117 106.959L225.804 106.906C225.823 106.803 227.537 96.3794 224.433 89.0847L224.721 88.9629C227.875 96.3357 226.145 106.847 226.126 106.953L226.117 106.959ZM230.829 104.202L230.154 92.2792L230.467 92.2605L231.141 104.186L230.829 104.202ZM182.355 103.359H182.042L182.32 92.2168H182.633L182.355 103.359Z" fill="#EEFBF4"/>
<path d="M144.592 124.793L114.101 103.012L145.756 100.136L169.698 125.393L144.592 124.793Z" fill="white"/>
<path d="M170.07 125.558L144.538 124.934L144.498 124.905L113.667 102.881L145.831 99.9611L170.07 125.558ZM144.641 124.621L169.311 125.211L145.681 100.283L114.516 103.112L144.641 124.621Z" fill="#9381FF"/>
<path fill-rule="evenodd" clip-rule="evenodd" d="M209.254 68.3028C211.868 68.6744 213.626 71.7128 213.148 75.0604L211.899 83.829C211.424 87.1766 208.898 89.6154 206.278 89.2438C203.664 88.8754 201.906 85.8338 202.384 82.4863L203.633 73.7176C204.114 70.3607 206.64 67.925 209.254 68.3028Z" fill="#E3AB84"/>
<path fill-rule="evenodd" clip-rule="evenodd" d="M210.191 61.0082C212.804 61.3767 214.562 64.4182 214.085 67.7658L212.836 76.5344C212.361 79.882 209.835 82.3177 207.215 81.9492C204.601 81.5807 202.843 78.5392 203.321 75.1916L204.57 66.423C205.051 63.0754 207.577 60.6397 210.191 61.0082Z" fill="#D6806B"/>
<path fill-rule="evenodd" clip-rule="evenodd" d="M193.609 58.816C193.334 59.8301 193.473 60.9121 193.995 61.8239C194.517 62.7356 195.38 63.4026 196.394 63.6781L196.572 63.7218C196.507 62.3032 196.639 60.8825 196.963 59.4999L197.25 58.3226C197.84 55.9119 194.571 55.2842 193.609 58.816Z" fill="#D6806B"/>
<path fill-rule="evenodd" clip-rule="evenodd" d="M225.586 66.626C225.362 67.6531 224.74 68.5494 223.856 69.118C222.971 69.6866 221.898 69.8808 220.87 69.6581L220.692 69.6144C221.404 68.3847 221.942 67.0628 222.291 65.686L222.579 64.5119C223.169 62.098 226.36 63.0473 225.586 66.626Z" fill="#D6806B"/>
<path fill-rule="evenodd" clip-rule="evenodd" d="M215.053 40.3825C208.089 38.6806 200.951 43.193 199.192 50.3752L196.285 62.2791C194.527 69.477 200.679 77.1214 205.753 78.4611C209.838 79.5166 219.856 75.6506 221.614 68.4683L224.521 56.5645C226.279 49.3635 222.02 42.0719 215.053 40.3825Z" fill="#E3AB84"/>
<path fill-rule="evenodd" clip-rule="evenodd" d="M216.33 67.7501C215.969 67.6706 215.592 67.6999 215.247 67.8342C214.903 67.9685 214.606 68.2017 214.393 68.5046C214.181 68.8075 214.063 69.1664 214.055 69.5362C214.046 69.906 214.147 70.27 214.345 70.5825C214.543 70.895 214.829 71.1419 215.167 71.2921C215.505 71.4423 215.879 71.4892 216.244 71.4267C216.609 71.3643 216.947 71.1953 217.215 70.9412C217.484 70.687 217.671 70.359 217.754 69.9984C217.809 69.7572 217.816 69.5075 217.774 69.2636C217.733 69.0197 217.643 68.7865 217.511 68.5775C217.378 68.3685 217.206 68.1877 217.003 68.0457C216.8 67.9037 216.572 67.8032 216.33 67.7501Z" fill="#D6806B"/>
<path fill-rule="evenodd" clip-rule="evenodd" d="M201.141 64.3464C200.78 64.2664 200.403 64.2951 200.058 64.4289C199.713 64.5627 199.416 64.7956 199.203 65.0983C198.99 65.401 198.872 65.7599 198.863 66.1298C198.854 66.4996 198.954 66.8639 199.152 67.1766C199.349 67.4894 199.635 67.7366 199.973 67.8872C200.311 68.0377 200.686 68.0849 201.051 68.0227C201.416 67.9604 201.754 67.7916 202.023 67.5375C202.291 67.2834 202.479 66.9554 202.562 66.5948C202.617 66.3538 202.624 66.1043 202.583 65.8606C202.541 65.6169 202.452 65.3838 202.32 65.1748C202.188 64.9658 202.015 64.785 201.813 64.6428C201.611 64.5006 201.382 64.3999 201.141 64.3464Z" fill="#D6806B"/>
<path d="M208.817 67.1412C208.28 67.1412 207.371 66.8695 207.127 66.423L207.402 66.2762C207.648 66.5436 207.979 66.717 208.339 66.7665C208.56 66.8387 208.796 66.8506 209.023 66.8008C209.023 66.7727 209.07 66.4605 208.885 64.5868L209.198 64.5556C209.407 66.7009 209.329 66.8758 209.294 66.9507C209.26 67.0257 209.104 67.1319 208.879 67.1412H208.817Z" fill="#D6806B"/>
<path fill-rule="evenodd" clip-rule="evenodd" d="M206.728 55.4997C206.842 55.5942 206.915 55.7297 206.931 55.8773C206.947 56.0248 206.904 56.1727 206.812 56.2893C206.721 56.4059 206.587 56.4821 206.44 56.5014C206.293 56.5207 206.144 56.4818 206.025 56.3928C205.558 56.0419 205.015 55.8059 204.44 55.7039C203.865 55.602 203.274 55.6368 202.715 55.8058C202.644 55.8293 202.569 55.8387 202.494 55.8333C202.42 55.828 202.347 55.808 202.28 55.7745C202.213 55.741 202.154 55.6947 202.105 55.6381C202.056 55.5816 202.019 55.516 201.995 55.4451C201.971 55.3741 201.962 55.2992 201.967 55.2247C201.973 55.1501 201.993 55.0773 202.026 55.0105C202.06 54.9436 202.106 54.8841 202.163 54.8351C202.219 54.7862 202.285 54.7489 202.356 54.7253C204.776 53.904 206.721 55.481 206.728 55.4997Z" fill="#1C2036"/>
<path fill-rule="evenodd" clip-rule="evenodd" d="M219.699 58.9159C219.81 59.0186 219.875 59.161 219.881 59.3118C219.886 59.4626 219.832 59.6095 219.729 59.72C219.626 59.8306 219.484 59.8958 219.333 59.9014C219.182 59.9069 219.036 59.8524 218.925 59.7497C218.488 59.3622 217.966 59.0831 217.401 58.935C216.837 58.7868 216.245 58.7739 215.674 58.8972C215.531 58.9224 215.384 58.8922 215.262 58.8126C215.141 58.7331 215.054 58.6102 215.02 58.4689C214.985 58.3277 215.006 58.1788 215.078 58.0524C215.15 57.926 215.267 57.8317 215.406 57.7886C217.882 57.1797 219.693 58.9097 219.699 58.9159Z" fill="#1C2036"/>
<path fill-rule="evenodd" clip-rule="evenodd" d="M224.668 63.3595C224.668 63.3595 222.96 62.9848 222.585 64.5118C222.11 63.3034 222.079 61.9655 222.497 60.7364C222.497 60.7364 220.177 56.1554 221.358 51.9615C222.538 47.7677 226.042 47.6678 226.042 47.6678C233.411 51.9053 226.426 56.1398 224.668 63.3595Z" fill="#F3E9D5"/>
<path fill-rule="evenodd" clip-rule="evenodd" d="M195.939 56.3429C195.939 56.3429 197.631 56.7957 197.256 58.3227C198.229 57.4676 198.868 56.2963 199.061 55.0157C199.061 55.0157 203.233 52.021 204.117 47.7522C205.001 43.4835 201.931 41.7784 201.931 41.7784C193.465 42.15 197.697 49.12 195.939 56.3429Z" fill="#F3E9D5"/>
<path fill-rule="evenodd" clip-rule="evenodd" d="M222.447 52.9515C222.447 52.9515 221.692 54.16 220.767 53.8072C219.843 53.4543 218.916 52.658 219.624 51.309C219.624 51.309 216.474 47.3806 213.601 47.4993C210.728 47.6179 203.836 51.1279 197.765 49.3261C191.695 47.5242 192.956 42.99 198.702 36.8351C203.074 32.151 208.052 31.0831 217.751 34.3369C227.45 37.5908 227.25 43.4522 226.048 47.6648C224.846 51.8773 222.447 52.9515 222.447 52.9515Z" fill="#F3E9D5"/>
<path opacity="0.5" fill-rule="evenodd" clip-rule="evenodd" d="M225.661 40.0671C217.854 44.8917 205.051 49.2729 192.035 41.5129C192.42 40.6606 192.898 39.8541 193.462 39.1084C194.01 38.3783 194.606 37.6866 195.248 37.038C206.659 43.7019 217.357 41.1694 224.309 37.9748C224.812 38.6365 225.264 39.336 225.661 40.0671Z" fill="white"/>
<path fill-rule="evenodd" clip-rule="evenodd" d="M203.024 62.176C203.334 62.2513 203.66 62.2331 203.959 62.1235C204.259 62.014 204.519 61.8181 204.708 61.5606C204.896 61.3031 205.004 60.9955 205.018 60.6767C205.032 60.3579 204.951 60.0422 204.785 59.7694C204.62 59.4967 204.377 59.2791 204.088 59.1442C203.799 59.0092 203.476 58.963 203.16 59.0114C202.845 59.0597 202.551 59.2004 202.316 59.4158C202.08 59.6311 201.914 59.9114 201.837 60.2212C201.737 60.6377 201.805 61.0773 202.027 61.4436C202.25 61.8099 202.608 62.0733 203.024 62.176Z" fill="#1C2036"/>
<path fill-rule="evenodd" clip-rule="evenodd" d="M215.68 65.2676C215.991 65.3436 216.316 65.326 216.617 65.217C216.917 65.1079 217.178 64.9123 217.367 64.6548C217.556 64.3974 217.664 64.0897 217.678 63.7706C217.692 63.4516 217.611 63.1356 217.446 62.8625C217.28 62.5894 217.037 62.3716 216.748 62.2366C216.458 62.1015 216.135 62.0554 215.82 62.1039C215.504 62.1524 215.21 62.2935 214.975 62.5092C214.739 62.7249 214.573 63.0057 214.497 63.3159C214.395 63.7316 214.463 64.1707 214.685 64.5367C214.907 64.9027 215.265 65.1656 215.68 65.2676Z" fill="#1C2036"/>
<path fill-rule="evenodd" clip-rule="evenodd" d="M211.608 70.0453C211.234 71.5754 208.823 72.5122 207.296 72.1406C205.769 71.769 204.261 70.0141 204.635 68.4839C204.669 68.3509 204.753 68.236 204.869 68.1638C204.986 68.0915 205.126 68.0674 205.26 68.0967L211.24 69.4114C211.372 69.448 211.484 69.5348 211.553 69.6533C211.622 69.7717 211.642 69.9124 211.608 70.0453Z" fill="white"/>
<path fill-rule="evenodd" clip-rule="evenodd" d="M181.006 255.042C181.006 255.042 180.59 254.73 180.59 253.849C180.59 250.377 186.033 252.069 188.057 250.87C189.762 249.862 192.547 247.304 192.591 244.166C192.591 244.166 192.591 242.408 194.618 242.408H197.812C198.509 242.408 199.667 242.942 199.839 243.969H201.897C202.618 243.969 203.661 244.125 203.661 246.292V253.684C203.661 254.234 203.452 254.892 203.093 255.033C203.048 255.312 202.971 255.586 202.865 255.848C202.141 256.076 201.381 256.173 200.623 256.132C199.954 256.023 198.125 255.042 198.125 255.042C197.964 254.978 197.829 254.864 197.738 254.716C197.648 254.569 197.609 254.396 197.625 254.224C197.616 254.135 197.59 254.049 197.548 253.971C197.505 253.893 197.448 253.824 197.378 253.768C197.308 253.712 197.228 253.671 197.143 253.647C197.057 253.623 196.967 253.616 196.879 253.628C196.163 253.628 194.746 254.234 194.565 254.343C194.383 254.452 194.293 254.655 194.293 255.033C194.293 255.411 192.666 256.226 190.611 256.351C188.556 256.476 181.006 255.042 181.006 255.042Z" fill="#1E3340"/>
<path fill-rule="evenodd" clip-rule="evenodd" d="M234.573 256.035H221.295C221.17 256.03 221.051 255.975 220.966 255.882C220.881 255.79 220.835 255.668 220.839 255.542V254.705C220.835 254.58 220.881 254.458 220.966 254.366C221.051 254.274 221.17 254.22 221.295 254.215H234.573C234.698 254.22 234.817 254.274 234.902 254.366C234.988 254.458 235.033 254.58 235.029 254.705V255.542C235.033 255.668 234.988 255.79 234.902 255.882C234.817 255.975 234.699 256.03 234.573 256.035Z" fill="#1E3340"/>
<path fill-rule="evenodd" clip-rule="evenodd" d="M222.906 256.035H212.489C212.363 256.03 212.245 255.975 212.16 255.882C212.074 255.79 212.029 255.668 212.033 255.542V254.705C212.029 254.58 212.074 254.458 212.16 254.366C212.245 254.274 212.364 254.22 212.489 254.215H222.9C222.962 254.217 223.023 254.232 223.079 254.258C223.136 254.284 223.186 254.32 223.228 254.366C223.27 254.412 223.303 254.465 223.324 254.523C223.346 254.581 223.356 254.643 223.353 254.705V255.542C223.358 255.666 223.314 255.788 223.231 255.88C223.147 255.972 223.031 256.028 222.906 256.035Z" fill="#1E3340"/>
<path d="M203.121 123.494L208.117 156.751L211.98 246.704H220.724C220.724 246.704 229.249 183.86 226.679 149.363C226.107 141.712 224.212 121.258 224.212 121.258L203.121 123.494Z" fill="#2E3C5A"/>
<path fill-rule="evenodd" clip-rule="evenodd" d="M217.464 254.221C217.464 254.221 215.63 255.201 214.965 255.311C214.207 255.352 213.448 255.257 212.723 255.03C212.617 254.767 212.54 254.494 212.495 254.215C212.136 254.071 211.927 253.412 211.927 252.863V245.471C211.927 243.304 212.967 243.148 213.691 243.148H215.749C215.921 242.111 217.079 241.586 217.773 241.586H220.958C222.988 241.586 222.988 243.341 222.988 243.341C223.031 246.483 225.817 249.037 227.522 250.049C229.545 251.245 234.985 249.556 234.985 253.028C234.985 253.921 234.573 254.221 234.573 254.221C234.573 254.221 227.032 255.667 224.98 255.532C222.928 255.398 221.298 254.596 221.298 254.215L217.464 254.221Z" fill="#1E3340"/>
<path d="M144.691 105.239L122.751 106.994L122.776 107.307L144.716 105.551L144.691 105.239Z" fill="#9381FF"/>
<path d="M149.06 109.336L127.12 111.091L127.144 111.404L149.085 109.648L149.06 109.336Z" fill="#9381FF"/>
<path d="M152.798 113.742L130.857 115.497L130.882 115.81L152.823 114.055L152.798 113.742Z" fill="#9381FF"/>
<path d="M158.734 117.533L136.794 119.288L136.819 119.601L158.759 117.846L158.734 117.533Z" fill="#9381FF"/>
<path d="M162.467 120.364L143.421 121.933L143.446 122.244L162.493 120.675L162.467 120.364Z" fill="#9381FF"/>
<path d="M131.042 117.092L121.986 110.432C121.986 110.432 136.141 109.476 136.557 111.784C136.972 114.092 131.042 117.092 131.042 117.092Z" fill="#E3AB84"/>
<path fill-rule="evenodd" clip-rule="evenodd" d="M207.074 86.2211C210.953 86.2211 211.758 83.2452 211.758 83.2452L223.878 86.6333C226.688 94.3309 225.986 106.931 225.986 106.931C223.962 119.997 224.48 121.199 226.132 134.186C226.216 135.137 226.159 136.094 225.964 137.028C222.01 143.898 191.326 143.102 187.52 136.472C187.324 135.539 187.268 134.583 187.351 133.634C189.003 120.643 190.215 119.997 188.191 106.931C188.191 106.931 193.041 95.4176 188.906 87.0237L202.418 83.2483C202.418 83.2483 203.199 86.2211 207.074 86.2211Z" fill="white"/>
<path fill-rule="evenodd" clip-rule="evenodd" d="M80.0134 93.9092C80.0134 93.9092 83.3079 109.948 84.5789 120.634C85.8498 131.319 103.231 115.796 103.231 115.796C103.231 115.796 119.282 119.166 114.351 109.598C109.42 100.03 110.21 84.6628 110.21 84.6628L93.6598 84.5878L80.0134 93.9092Z" fill="#1C2036"/>
<path d="M82.4803 158.55L88.91 159.053L90.8274 163.983L82.0837 162.219C80.9002 162.091 79.1577 159.577 79.8978 158.875C80.4193 158.387 82.4803 158.55 82.4803 158.55Z" fill="#D6806B"/>
<path d="M94.1375 159.09L90.8274 163.996L84.5195 162.725L91.5488 152.207L92.9103 153.104C93.8667 153.735 94.5332 154.72 94.7634 155.843C94.9935 156.965 94.7684 158.133 94.1375 159.09Z" fill="#E3AB84"/>
<path d="M88.7446 156.888L68.5093 142.043L74.5861 133.331L91.8579 152.229L88.7446 156.888Z" fill="#D86B50"/>
<path d="M74.1926 140.01C73.8321 140.774 73.2531 141.413 72.529 141.848C71.8049 142.283 70.9681 142.493 70.1246 142.451C69.2811 142.41 68.4687 142.12 67.7903 141.617C67.1118 141.114 66.5978 140.421 66.3132 139.626C66.0287 138.831 65.9863 137.969 66.1916 137.15C66.3969 136.331 66.8405 135.591 67.4664 135.024C68.0923 134.457 68.8723 134.088 69.7077 133.965C70.5432 133.841 71.3965 133.968 72.1597 134.33C73.182 134.814 73.9703 135.684 74.3515 136.749C74.7327 137.814 74.6755 138.987 74.1926 140.01Z" fill="#D86B50"/>
<path d="M75.2106 141.659L67.0634 135.548L80.4162 117.093C82.4053 114.41 89.4346 112.864 91.8079 115.219C94.1843 117.567 93.9251 124.1 91.2645 126.117L75.2106 141.659Z" fill="#D86B50"/>
<path d="M96.3235 151.798L80.6161 119.384C78.8986 116.699 83.3579 113.657 86.0996 113.286L105.292 108.936C108.034 108.564 110.491 110.659 111.597 113.426L117.399 151.13L96.3235 151.798Z" fill="#D86B50"/>
<path fill-rule="evenodd" clip-rule="evenodd" d="M103.603 109.723L101.944 97.4536C101.467 93.9281 98.8748 91.3455 96.1892 91.7109C93.5037 92.0763 91.6956 95.2583 92.1765 98.7839L94.4779 111.369C94.4779 111.369 105.036 115.881 103.603 109.723Z" fill="#E3AB84"/>
<path fill-rule="evenodd" clip-rule="evenodd" d="M96.1798 91.7233C98.8654 91.3579 101.457 93.9404 101.935 97.466L103.315 107.612C102.323 108.402 101.137 108.912 99.8802 109.089C97.5819 109.401 95.6989 108.905 93.6348 106.903L92.1671 98.7838C91.6862 95.2582 93.4943 92.0762 96.1798 91.7233Z" fill="#D6806B"/>
<path fill-rule="evenodd" clip-rule="evenodd" d="M107.637 82.0148C107.737 81.9992 107.837 81.9867 107.949 81.9774C108.882 81.8988 109.814 82.14 110.591 82.6612C111.368 83.1824 111.945 83.9526 112.226 84.8452C112.508 85.7378 112.477 86.6995 112.139 87.5724C111.802 88.4452 111.177 89.1771 110.368 89.6477C109.559 90.1184 108.614 90.2997 107.688 90.1619C106.763 90.0242 105.912 89.5755 105.275 88.8897C104.638 88.2039 104.253 87.3218 104.184 86.3885C104.115 85.4551 104.366 84.5261 104.895 83.7542C105.142 84.9471 105.757 86.3336 107.287 86.0338L106.563 83.7729C106.266 82.858 106.997 82.1772 107.637 82.0148Z" fill="#D6806B"/>
<path fill-rule="evenodd" clip-rule="evenodd" d="M80.6629 90.0714C80.5692 90.1151 80.4755 90.1588 80.3881 90.2057C79.5672 90.6516 78.9225 91.3636 78.5598 92.2245C78.1972 93.0854 78.1382 94.0441 78.3926 94.943C78.647 95.8418 79.1996 96.6275 79.9596 97.1707C80.7196 97.7139 81.6418 97.9823 82.5747 97.932C83.5075 97.8816 84.3955 97.5154 85.0926 96.8936C85.7897 96.2717 86.2545 95.4312 86.4107 94.5101C86.5668 93.5891 86.405 92.6423 85.9518 91.8254C85.4985 91.0086 84.7809 90.3702 83.9168 90.0152C84.3665 91.1487 84.61 92.6445 83.1673 93.2347L82.5428 90.9458C82.2711 90.0246 81.2843 89.8497 80.6629 90.0714Z" fill="#D6806B"/>
<path fill-rule="evenodd" clip-rule="evenodd" d="M100.186 105.854C95.2711 107.649 87.1395 100.436 81.7434 93.7594L78.8362 84.2506C77.7527 80.6766 78.1278 76.8189 79.8797 73.5206C81.6315 70.2222 84.6177 67.7513 88.1856 66.6478C91.7593 65.565 95.6162 65.9401 98.9143 67.6913C102.212 69.4424 104.684 72.4272 105.788 75.9941L108.64 85.303C107.778 93.3815 105.763 103.821 100.186 105.854Z" fill="#E3AB84"/>
<path fill-rule="evenodd" clip-rule="evenodd" d="M104.814 89.475C103.793 89.3189 102.722 90.2089 102.419 91.4611C102.116 92.7133 102.703 93.8562 103.724 94.0124C104.746 94.1685 105.817 93.2785 106.12 92.0263C106.422 90.7741 105.835 89.6312 104.814 89.475Z" fill="#D6806B"/>
<path fill-rule="evenodd" clip-rule="evenodd" d="M89.3285 94.3902C87.9202 94.2028 86.7054 95.0366 86.6149 96.2638C86.5243 97.4911 87.5923 98.6152 89.0006 98.8026C90.409 98.99 91.6268 98.1593 91.7143 96.9446C91.8017 95.7298 90.7369 94.5807 89.3285 94.3902Z" fill="#D6806B"/>
<path fill-rule="evenodd" clip-rule="evenodd" d="M89.1411 84.0635C89.2964 84.0833 89.4374 84.1641 89.5332 84.2879C89.6289 84.4118 89.6716 84.5686 89.6517 84.7239C89.6318 84.8792 89.5511 85.0202 89.4272 85.116C89.3033 85.2117 89.1465 85.2544 88.9912 85.2345C88.9912 85.2345 87.0364 84.9503 85.7249 86.468C85.674 86.527 85.612 86.5755 85.5424 86.6106C85.4729 86.6457 85.3971 86.6667 85.3193 86.6725C85.2416 86.6783 85.1635 86.6687 85.0895 86.6444C85.0155 86.62 84.947 86.5813 84.888 86.5304C84.8289 86.4796 84.7804 86.4176 84.7454 86.348C84.7103 86.2784 84.6892 86.2026 84.6834 86.1249C84.6776 86.0472 84.6872 85.9691 84.7116 85.8951C84.7359 85.8211 84.7747 85.7526 84.8255 85.6935C86.5493 83.6887 89.1411 84.0635 89.1411 84.0635Z" fill="#1C2036"/>
<path fill-rule="evenodd" clip-rule="evenodd" d="M102.535 80.2317C102.688 80.2644 102.822 80.3567 102.907 80.4881C102.992 80.6196 103.022 80.7795 102.989 80.9328C102.956 81.086 102.864 81.2199 102.732 81.3051C102.601 81.3903 102.441 81.4198 102.288 81.3871C102.288 81.3871 100.364 80.9468 98.934 82.352C98.8795 82.4103 98.8137 82.4569 98.7407 82.4892C98.6677 82.5214 98.5889 82.5386 98.5091 82.5397C98.4292 82.5408 98.35 82.5257 98.2762 82.4955C98.2023 82.4652 98.1353 82.4204 98.0792 82.3636C98.023 82.3068 97.9789 82.2394 97.9495 82.1651C97.9201 82.0909 97.9059 82.0116 97.9079 81.9318C97.9099 81.852 97.9279 81.7734 97.961 81.7007C97.994 81.6281 98.0414 81.5628 98.1003 81.5089C99.9926 79.6478 102.528 80.2317 102.535 80.2317Z" fill="#1C2036"/>
<path d="M95.8488 93.7656C95.6658 93.7739 95.4839 93.734 95.3211 93.6501C94.862 93.3784 94.8932 92.0887 94.9557 91.3237L95.268 91.3486C95.1712 92.5447 95.2992 93.2754 95.4803 93.3815C95.8488 93.4923 96.2444 93.4702 96.5983 93.3191C96.833 93.2704 97.0494 93.1568 97.2228 92.9912H97.5351C97.5507 93.1255 97.4633 93.2504 97.2696 93.3784C96.8365 93.6258 96.3476 93.759 95.8488 93.7656Z" fill="#D6806B"/>
<path fill-rule="evenodd" clip-rule="evenodd" d="M77.7463 88.5506L79.0891 91.3111C79.0891 91.3111 80.8941 90.9988 81.375 92.5602C81.7939 91.2776 81.7452 89.8882 81.2376 88.638C81.2376 88.638 83.3735 83.751 81.8965 79.4697C81.079 77.0209 79.9453 74.6893 78.5239 72.5341C78.5239 72.5341 73.9397 79.5447 77.7463 88.5506Z" fill="#1C2036"/>
<path fill-rule="evenodd" clip-rule="evenodd" d="M109.089 78.9514L109.52 81.9929C109.52 81.9929 107.846 82.7392 108.327 84.3006C108.327 84.3006 106.607 83.0515 106.241 80.978C106.241 80.978 101.735 78.1207 100.564 73.7489C99.3931 69.3771 100.449 66.907 100.449 66.907C100.449 66.907 107.194 69.3521 109.089 78.9514Z" fill="#1C2036"/>
<path fill-rule="evenodd" clip-rule="evenodd" d="M102.029 88.7973C102.454 88.6668 102.81 88.373 103.019 87.9801C103.228 87.5873 103.273 87.1276 103.143 86.7019C103.107 86.5836 103.058 86.4695 102.997 86.3615L103.159 86.2398C103.347 86.0989 103.503 85.9189 103.615 85.712C103.629 85.6881 103.638 85.6616 103.642 85.6341C103.645 85.6067 103.643 85.5788 103.636 85.5521C103.629 85.5253 103.616 85.5003 103.599 85.4785C103.582 85.4566 103.561 85.4383 103.537 85.4247C103.488 85.3977 103.43 85.3911 103.377 85.4063C103.323 85.4215 103.277 85.4573 103.25 85.5059C103.139 85.7022 102.982 85.8676 102.791 85.9868C102.964 85.7993 103.081 85.5665 103.128 85.3154C103.133 85.2884 103.133 85.2606 103.127 85.2336C103.121 85.2066 103.111 85.181 103.095 85.1583C103.08 85.1355 103.06 85.116 103.037 85.1009C103.014 85.0858 102.988 85.0754 102.961 85.0703C102.934 85.0652 102.906 85.0654 102.879 85.071C102.852 85.0767 102.826 85.0875 102.804 85.1031C102.781 85.1186 102.761 85.1384 102.746 85.1615C102.731 85.1845 102.721 85.2103 102.716 85.2374C102.677 85.4413 102.574 85.6274 102.422 85.7682H102.403C102.509 85.6114 102.564 85.4263 102.563 85.2374C102.556 85.1859 102.531 85.1385 102.493 85.1041C102.454 85.0697 102.404 85.0507 102.352 85.0507C102.3 85.0507 102.25 85.0697 102.211 85.1041C102.172 85.1385 102.147 85.1859 102.141 85.2374C102.143 85.3663 102.096 85.4912 102.01 85.5871C101.759 85.5149 101.495 85.5022 101.239 85.55C100.982 85.5977 100.741 85.7046 100.533 85.8622C100.325 86.0197 100.157 86.2236 100.042 86.4576C99.9264 86.6915 99.8673 86.9491 99.8691 87.2099C99.8708 87.4707 99.9334 87.7275 100.052 87.9599C100.17 88.1923 100.341 88.3938 100.551 88.5485C100.761 88.7033 101.004 88.8069 101.261 88.8511C101.518 88.8954 101.782 88.8791 102.032 88.8035L102.029 88.7973Z" fill="#1C2036"/>
<path fill-rule="evenodd" clip-rule="evenodd" d="M89.1068 92.7539C88.8665 92.8277 88.6126 92.8465 88.364 92.8089C88.1154 92.7714 87.8785 92.6784 87.6707 92.5368C87.4629 92.3953 87.2896 92.2089 87.1636 91.9913C87.0376 91.7738 86.9621 91.5307 86.9427 91.28H86.7398C86.5045 91.2664 86.2748 91.2036 86.0653 91.0958C86.0156 91.0705 85.9779 91.0265 85.9607 90.9735C85.9434 90.9205 85.9479 90.8628 85.9731 90.8131C85.9984 90.7635 86.0424 90.7258 86.0954 90.7086C86.1484 90.6913 86.2061 90.6958 86.2557 90.721C86.4556 90.8225 86.6782 90.8708 86.9022 90.8615C86.6521 90.8036 86.4236 90.6758 86.2433 90.4931C86.2043 90.4517 86.1834 90.3965 86.1852 90.3397C86.187 90.2829 86.2112 90.2291 86.2526 90.1902C86.294 90.1512 86.3492 90.1304 86.406 90.1321C86.4628 90.1339 86.5166 90.1581 86.5555 90.1995C86.7023 90.3455 86.8913 90.4417 87.0958 90.4743V90.4525C86.9212 90.3816 86.7721 90.2597 86.6679 90.1027C86.6383 90.0558 86.6283 89.9991 86.6399 89.9448C86.6516 89.8905 86.6841 89.8429 86.7304 89.8123C86.7534 89.7968 86.7793 89.7861 86.8065 89.7809C86.8338 89.7756 86.8618 89.7759 86.8889 89.7817C86.916 89.7876 86.9417 89.7988 86.9643 89.8148C86.987 89.8308 87.0062 89.8512 87.0208 89.8748C87.0939 89.9835 87.2055 90.0605 87.3331 90.0902C87.5002 89.8899 87.7118 89.7313 87.951 89.627C88.1901 89.5228 88.4504 89.4758 88.7109 89.4898C88.9714 89.5039 89.2251 89.5785 89.4517 89.7077C89.6784 89.837 89.8717 90.0174 90.0164 90.2345C90.161 90.4517 90.253 90.6995 90.2851 90.9585C90.3171 91.2174 90.2883 91.4803 90.2009 91.7261C90.1135 91.9719 89.9699 92.194 89.7816 92.3746C89.5933 92.5552 89.3654 92.6894 89.1162 92.7664L89.1068 92.7539Z" fill="#1C2036"/>
<path fill-rule="evenodd" clip-rule="evenodd" d="M100.942 95.1958C101.42 96.7572 99.771 98.9119 98.2065 99.3928C96.642 99.8737 93.8596 98.8525 93.3787 97.288C93.2913 97.0008 94.5841 96.8352 94.8714 96.7478L99.4899 95.3301C99.7772 95.2427 100.855 94.9085 100.942 95.1958Z" fill="white"/>
<path fill-rule="evenodd" clip-rule="evenodd" d="M78.2834 74.3766C78.2834 74.3766 81.3687 48.967 103.428 65.2957C108.059 68.7307 112.915 72.3 112.843 74.6358C112.562 83.4263 82.3867 85.0095 78.2834 74.3766Z" fill="#1C2036"/>
<path opacity="0.5" fill-rule="evenodd" clip-rule="evenodd" d="M78.5239 72.5342C78.5239 72.5342 92.5762 83.6854 110.201 70.9416L105.948 67.11C105.948 67.11 97.5069 78.6079 78.5051 72.3624L78.5239 72.5342Z" fill="white"/>
<path d="M155.889 113.626L151.165 116.986L151.693 116.127C158.275 111.565 156.249 110.247 156.249 110.247C156.249 110.247 149.457 114.213 149.572 114.485C149.688 114.757 146.259 120.265 146.259 120.265L144.698 123.338L146.175 123.738L146.328 125.124C146.328 125.124 157.014 118.054 157.466 117.864C158.291 117.514 162.635 109.448 162.635 109.448C162.635 109.448 163.275 103.252 155.889 113.626Z" fill="#E3AB84"/>
<path d="M148.701 123.603L144.954 122.148L120.987 139.061L130.38 143.077L148.701 123.603Z" fill="#D86B50"/>
<path d="M131.076 136.816L121.155 141.137L104.983 120.574C101.626 118.164 102.588 110.894 105.295 108.936L104.983 109.186C107.696 107.24 112.599 109.048 114.142 112.012L131.076 136.816Z" fill="#D86B50"/>
<path d="M79.0609 90.8833C79.0172 90.8521 74.8296 87.6263 74.3487 82.5675C74.0364 79.1918 75.3948 75.7787 78.4083 72.428L78.5207 72.2999L78.6362 72.428C78.7393 72.5373 88.757 83.2888 99.4992 82.6893C104.546 82.402 108.989 79.6602 112.708 74.5452L112.961 74.7294C109.183 79.9256 104.661 82.708 99.5148 83.0015C99.2025 83.0203 98.909 83.0265 98.6092 83.0265C88.7039 83.0265 79.6574 73.9456 78.5269 72.7652C75.6478 76.0066 74.3425 79.2948 74.6516 82.5394C75.12 87.4639 79.2014 90.6023 79.242 90.6335L79.0609 90.8833Z" fill="#1C2036"/>
<path d="M80.9511 97.6508L80.6388 97.6758L82.0982 115.919L82.4105 115.894L80.9511 97.6508Z" fill="#1C2036"/>
<path d="M114.779 132.185L114.545 131.982C120.934 124.677 109.358 112.33 109.236 112.205L109.464 111.99C109.586 112.115 121.355 124.671 114.779 132.185Z" fill="#FF5736"/>
<path d="M99.1682 201.831C99.1682 201.831 85.3251 211.986 98.7092 246.611L104.246 246.152V204.142L99.1682 201.831Z" fill="#E3AB84"/>
<path fill-rule="evenodd" clip-rule="evenodd" d="M98.1752 244.887C98.2096 246.155 99.2182 247.51 99.2526 248.531C98.8386 249.152 98.376 249.739 97.8692 250.286L97.6132 251.848L101.451 262.352L104.539 263.374C104.539 263.374 108.165 262.343 107.837 262.209C107.509 262.074 106.194 261.078 106.11 260.626C106.026 260.173 104.602 253.24 104.696 251.079C104.767 249.484 104.096 247.295 104.252 245.658L98.1752 244.887Z" fill="#E3AB84"/>
<path d="M108.861 200.91C108.861 200.91 95.0149 211.062 108.399 245.674L113.936 245.212V203.205L108.861 200.91Z" fill="#E3AB84"/>
<path fill-rule="evenodd" clip-rule="evenodd" d="M96.82 255.76L96.2579 256.254L96.8825 265.578H97.1948C97.1948 265.578 97.3696 261.578 97.3478 260.582C97.3259 259.586 98.0348 258.483 98.5969 258.296C99.159 258.109 96.82 255.76 96.82 255.76Z" fill="#2E3C5A"/>
<path d="M104.246 246.136C104.199 242.636 104.155 239.135 104.137 235.638C104.118 232.14 104.108 228.636 104.096 225.139C104.083 221.642 104.096 218.138 104.096 214.637C104.096 211.137 104.137 207.639 104.161 204.139L104.205 204.204L99.1558 201.831L104.265 204.073L104.305 204.092V204.142C104.33 207.642 104.371 211.143 104.371 214.64C104.371 218.138 104.399 221.642 104.371 225.142C104.343 228.643 104.371 232.14 104.33 235.641C104.29 239.141 104.293 242.636 104.246 246.136Z" fill="#D6806B"/>
<path fill-rule="evenodd" clip-rule="evenodd" d="M107.253 261.837C107.14 262.025 106.975 262.177 106.778 262.274C106.488 262.396 103.999 262.627 103.425 262.512C102.85 262.396 102.069 262.199 101.348 259.929C100.627 257.659 98.1003 250.299 98.0503 250.08L98.3626 249.705C98.169 249.634 97.9678 249.585 97.763 249.559C97.6256 249.559 96.8262 251.051 96.5514 251.701C96.2766 252.35 95.9581 255.542 96.1205 256.048C96.2829 256.554 97.8474 257.234 99.4025 260.488C100.958 263.742 100.464 265.485 103.178 265.431L109.601 265.266C110.538 265.244 110.932 264.438 110.85 264.079C110.769 263.72 109.586 262.958 108.134 262.009C107.862 261.872 107.557 261.812 107.253 261.837Z" fill="#7811C9"/>
<path fill-rule="evenodd" clip-rule="evenodd" d="M107.878 243.966C107.912 245.231 108.921 246.589 108.958 247.607C108.543 248.228 108.081 248.816 107.575 249.365L107.315 250.927L111.153 261.431L114.245 262.452C114.245 262.452 117.87 261.422 117.527 261.288C117.183 261.153 115.884 260.154 115.8 259.701C115.716 259.249 114.292 252.319 114.388 250.158C114.457 248.559 113.789 246.37 113.942 244.734L107.878 243.966Z" fill="#E3AB84"/>
<path fill-rule="evenodd" clip-rule="evenodd" d="M106.513 254.839L105.951 255.33L106.557 264.657H106.869C106.869 264.657 107.044 260.657 107.019 259.661C106.994 258.665 107.706 257.559 108.268 257.372C108.83 257.184 106.513 254.839 106.513 254.839Z" fill="#2E3C5A"/>
<path fill-rule="evenodd" clip-rule="evenodd" d="M116.952 260.916C116.839 261.103 116.674 261.254 116.478 261.35C116.184 261.472 113.698 261.703 113.121 261.588C112.543 261.472 111.765 261.26 111.047 259.008C110.329 256.757 107.796 249.375 107.75 249.159L108.062 248.784C107.87 248.712 107.669 248.662 107.465 248.638C107.325 248.638 106.529 250.127 106.251 250.78C105.973 251.432 105.66 254.621 105.82 255.127C105.979 255.633 107.565 256.31 109.127 259.567C110.688 262.824 110.188 264.564 112.902 264.507L119.325 264.345C120.262 264.32 120.653 263.514 120.575 263.158C120.497 262.802 119.31 262.034 117.855 261.088C117.577 260.944 117.263 260.885 116.952 260.916Z" fill="#7811C9"/>
<path d="M116.784 149.1C116.784 149.1 126.558 167.887 114.095 210.343L93.6348 210.806C93.6348 210.806 79.773 157.22 95.3867 149.257L116.784 149.1Z" fill="#7811C9"/>
<path d="M85.7281 130.948L85.5126 130.72C85.572 130.664 91.246 125.046 83.308 113.748L83.5609 113.57C91.6644 125.099 85.7874 130.889 85.7281 130.948Z" fill="#FF5736"/>
<path fill-rule="evenodd" clip-rule="evenodd" d="M215.565 84.41L212.402 80.5565L207.074 86.2212L211.399 90.0309L215.565 84.41Z" fill="white"/>
<path fill-rule="evenodd" clip-rule="evenodd" d="M202.565 79.985L198.596 84.3038L203.699 90.0309L207.074 86.2211L202.565 79.985Z" fill="white"/>
<path fill-rule="evenodd" clip-rule="evenodd" d="M207.127 86.2086L211.452 90.0183L215.615 84.3974" fill="white"/>
<path d="M211.477 90.2463L207.024 86.3273L207.23 86.0931L211.427 89.7873L215.49 84.3038L215.74 84.488L211.477 90.2463Z" fill="#EEFBF4"/>
<path d="M203.699 90.265L198.48 84.4098L198.715 84.2006L203.699 89.7934L206.959 86.118L207.193 86.3272L203.699 90.265Z" fill="#EEFBF4"/>
<path d="M208.223 142.024H204.37L205.207 88.1542L205.519 88.1573L204.689 141.712H207.914L208.539 87.7388L208.851 87.742L208.223 142.024Z" fill="#EEFBF4"/>
<path d="M126.464 143.948C129.741 143.948 132.397 141.851 132.397 139.264C132.397 136.677 129.741 134.58 126.464 134.58C123.187 134.58 120.531 136.677 120.531 139.264C120.531 141.851 123.187 143.948 126.464 143.948Z" fill="#D86B50"/>
</svg>
