<svg width="248" height="252" viewBox="0 0 248 252" fill="none" xmlns="http://www.w3.org/2000/svg">
<path d="M83.6959 219.947C81.7601 219.219 79.8374 218.463 77.9446 217.685C75.6251 216.725 73.3445 215.729 71.103 214.699C70.0883 214.238 69.0878 213.769 68.0917 213.282C66.8415 212.687 65.6126 212.08 64.3924 211.463C63.1721 210.846 61.9676 210.214 60.7813 209.582C59.7276 209.017 58.6768 208.44 57.629 207.852C56.5813 207.264 55.5114 206.653 54.4195 206.019C53.1086 205.242 51.8239 204.473 50.5654 203.71C44.9965 200.301 39.6456 196.524 34.5459 192.403C27.5808 186.703 22.5835 181.261 20.3099 176.864C11.4629 159.78 14.2483 132.966 26.8701 104.723C28.6806 100.664 30.7016 96.5713 32.9333 92.4458C33.3256 91.721 33.725 90.992 34.1296 90.2892C34.7026 89.2538 35.2905 88.2224 35.8934 87.1952C37.3432 84.6941 38.8784 82.1877 40.4991 79.6759C41.9982 77.3543 43.5583 75.0372 45.1792 72.7245C46.3821 71.005 47.6271 69.2847 48.9154 67.5827L49.3068 67.0691C52.7637 62.4325 56.4713 57.886 60.4297 53.4296C61.9043 51.7728 63.414 50.1195 64.9659 48.4655L65.7956 47.5818C68.3885 44.8703 71.0798 42.211 73.8697 39.6038C75.4064 38.1549 76.9784 36.724 78.5858 35.3112C81.773 32.4611 85.3361 30.096 89.1671 28.2875C89.233 28.2547 89.3007 28.2257 89.3697 28.2006C90.7432 27.563 92.1515 27.0097 93.5875 26.5436C104.632 22.9374 116.36 24.6504 127.935 29.5173C137.985 33.7388 147.934 40.3386 157.212 47.9034C168.265 56.9102 178.386 67.2826 186.663 76.6474C187.907 78.0487 189.099 79.4229 190.261 80.7514C192.793 83.7149 195.112 86.5263 197.183 89.1137C200.187 92.8482 202.677 96.111 204.548 98.6121C207.111 102.057 208.523 104.108 208.523 104.108C208.523 104.108 209.062 104.99 209.898 106.627C216.258 119.118 240.004 175.61 174.199 217.684C173.58 218.079 172.949 218.476 172.312 218.872C165.371 223.118 157.782 226.105 149.874 227.704C145.038 228.702 140.132 229.282 135.205 229.438C124.3 229.824 113.084 228.358 102.106 225.652C95.87 224.11 89.7235 222.205 83.6959 219.947Z" fill="#D7B8EF"/>
<path d="M228.88 30.4488L150.703 5.96049C140.157 2.65709 129.065 8.87118 125.898 19.6349L115.772 54.0551C112.571 64.9371 118.593 76.383 129.024 79.6505L149.199 85.97C151.491 86.6882 153.436 88.5891 154.105 90.9949L160.199 112.41C160.494 113.536 161.685 114.168 162.776 113.863C163.04 113.817 163.339 113.652 163.523 113.452L180.126 99.1457C181.979 97.5298 184.505 97.0292 186.912 97.7833L207.086 104.103C217.632 107.406 228.725 101.192 231.891 90.4284L242.017 56.0082C245.299 45.2804 239.426 33.7522 228.88 30.4488Z" fill="#F2E7FA"/>
<circle cx="201.842" cy="63" r="7" fill="white"/>
<circle cx="180.842" cy="56" r="7" fill="white"/>
<circle cx="158.842" cy="49" r="7" fill="white"/>
<path d="M116.96 142.213C116.96 142.213 90.4168 141.077 87.362 113.156C84.3072 85.208 92.8856 59.1199 117.928 55.8578C142.971 52.5865 151.469 38.6673 150.314 53.3012C150.314 53.3012 155.323 47.7574 156.575 50.4606C157.836 53.1638 156.948 58.1303 150.847 61.255C150.847 61.255 163.164 64.9478 162.507 91.1275C161.752 121.889 160.687 148.288 116.96 142.213Z" fill="#010C39"/>
<path d="M101.988 107.53C105.638 113.477 106.144 123.071 101.419 126.159C96.6951 129.238 88.5164 124.647 84.8665 118.691C81.2167 112.744 82.0959 105.413 86.8202 102.334C91.5534 99.2554 98.338 101.583 101.988 107.53Z" fill="#CC885A"/>
<path d="M148.068 108.987C144.018 114.659 142.846 124.189 147.348 127.607C151.851 131.025 160.323 127.039 164.372 121.376C168.421 115.704 168.048 108.336 163.546 104.918C159.035 101.491 152.108 103.315 148.068 108.987Z" fill="#CC885A"/>
<path d="M88.028 176.072C116.294 166.982 108.586 136.871 108.586 136.871L121.613 135.231V134.974L122.626 135.102L123.638 134.974V135.231L136.665 136.871C136.665 136.871 128.957 166.982 157.223 176.072C185.489 185.162 191.91 194.252 194.112 230.236H123.638H121.622H51.1481C53.3415 194.252 59.762 185.162 88.028 176.072Z" fill="#CC885A"/>
<path d="M109.501 144.009C109.323 139.757 108.577 136.871 108.577 136.871L121.604 135.231V134.974L122.617 135.102L123.629 134.974V135.231L136.657 136.871C136.657 136.871 135.396 141.792 135.76 148.252C132.909 154.272 122.626 162.62 109.501 144.009Z" fill="#AD683A"/>
<path d="M154.701 81.2311C154.897 81.8359 161.175 122.851 146.576 138.044C131.985 153.246 106.748 144.247 100.602 128.67C95.2921 115.227 94.2708 89.8905 104.599 74.4136C114.918 58.9367 144.507 50.4148 154.701 81.2311Z" fill="#CC885A"/>
<path d="M90.5677 110.416C90.6299 110.416 90.692 110.426 90.7453 110.435C90.8519 110.444 90.7364 110.435 90.772 110.435C90.8075 110.444 90.843 110.444 90.8785 110.453C90.9762 110.471 91.0739 110.49 91.1716 110.508C91.6866 110.618 92.1928 110.783 92.6635 111.021C94.0399 111.727 94.8924 113.01 94.9634 114.604C95.0256 115.951 94.6082 117.765 93.0364 117.701C92.5036 117.683 91.953 117.417 91.5445 117.023C91.1094 116.602 90.7009 115.924 90.7897 115.273C90.8874 114.558 91.6422 114.228 92.255 114.192C93.1075 114.137 93.9333 114.467 94.4662 115.163C94.7592 115.539 95.2743 115.007 94.9812 114.632C93.9511 113.303 91.4468 112.863 90.3723 114.384C89.3422 115.85 90.8075 117.756 92.1573 118.279C92.8233 118.535 93.587 118.517 94.2264 118.178C94.9546 117.793 95.3808 117.005 95.5673 116.208C96.0113 114.201 95.4075 112.066 93.7735 110.838C92.8677 110.16 91.6866 109.729 90.5588 109.665C90.0971 109.628 90.097 110.38 90.5677 110.416Z" fill="#AD683A"/>
<path d="M161.353 111.635C160.411 111.69 159.435 112.02 158.618 112.496C157.898 112.918 157.268 113.514 156.85 114.256C156.327 115.181 156.158 116.281 156.229 117.344C156.291 118.26 156.557 119.25 157.268 119.864C157.827 120.349 158.547 120.514 159.266 120.386C159.976 120.267 160.66 119.845 161.122 119.277C161.646 118.645 162.028 117.738 161.797 116.895C161.521 115.933 160.562 115.484 159.666 115.42C158.644 115.346 157.579 115.777 156.939 116.611C156.646 116.986 157.161 117.518 157.454 117.142C157.934 116.528 158.644 116.18 159.408 116.171C159.994 116.162 160.722 116.336 161.024 116.913C161.326 117.481 161.024 118.205 160.678 118.673C160.332 119.149 159.816 119.497 159.257 119.635C158.76 119.754 158.209 119.69 157.783 119.341C157.223 118.883 157.019 118.095 156.966 117.39C156.833 115.704 157.428 114.128 158.857 113.23C159.39 112.89 159.985 112.671 160.589 112.524C160.704 112.496 160.811 112.478 160.927 112.451C160.98 112.441 161.024 112.432 161.077 112.423C161.104 112.414 161.237 112.405 161.122 112.414C161.202 112.405 161.282 112.396 161.362 112.386C161.823 112.35 161.823 111.598 161.353 111.635Z" fill="#AD683A"/>
<path d="M157.223 176.072C150.785 174.001 146.221 170.839 142.997 167.192C126.391 179.059 111.454 176.878 104.563 164.178C101.348 169.071 96.189 173.451 88.0369 176.072C59.7709 185.162 53.3504 194.252 51.1481 230.236H121.622H123.638H194.112C191.91 194.252 185.489 185.162 157.223 176.072Z" fill="#6A75CF"/>
<path d="M142.669 221.998C111.925 225.426 85.0708 209.6 59.1847 194.041C54.2295 201.894 52.1959 212.963 51.1392 230.236H121.613H123.629H194.103C193.135 214.347 191.333 203.708 187.194 195.993C184.948 197.798 156.877 219.249 142.669 221.998Z" fill="#4A5ABA"/>
<path d="M93.7291 98.559C93.7291 98.559 95.2032 111.094 98.8797 110.032C102.547 108.978 112.635 74.8809 112.635 74.8809C112.635 74.8809 135.946 83.7785 152.099 71.6646C152.099 71.6646 138.317 47.8032 109.509 65.4152C109.518 65.4152 97.5743 75.2658 93.7291 98.559Z" fill="#010C39"/>
<path d="M131.533 227.167L129.979 177.465L134.339 176.163L147.766 188.543C147.766 188.543 149.524 185.858 145.75 180.663C141.976 175.467 137.021 173.909 136.772 173.735C136.523 173.561 124.943 176.246 124.943 176.246L126.391 228.321L131.533 227.167Z" fill="#4A5ABA"/>
<path d="M142.997 167.192C142.997 167.192 120.237 185.428 104.563 164.178C104.563 164.178 95.3632 175.036 94.6616 185.968L110.992 174.413C110.992 174.413 121.427 180.626 134.472 174.413L148.068 185.968C148.068 185.968 149.187 172.397 142.997 167.192Z" fill="#AAB4F2"/>
<path d="M127.696 174.78H121.089V230.135H127.696V174.78Z" fill="#AAB4F2"/>
<path d="M72.3101 123C73.289 123.528 73.9667 124.508 73.9667 125.715V147.698L81.1204 154.863C82.3252 156.069 82.3252 158.068 81.1204 159.275C80.518 159.878 79.7273 160.179 78.9366 160.179C78.1459 160.179 77.3176 159.878 76.7528 159.275L67.7545 150.3V125.753C67.7545 124.584 68.4322 123.566 69.4111 123.038C56.3087 123.792 45.8418 134.614 45.8418 147.962C45.8418 161.763 57.0617 173 70.8419 173C84.622 173 95.8417 161.763 95.8417 147.962C95.8793 134.614 85.4501 123.792 72.3101 123Z" fill="white"/>
</svg>
