<svg width="253" height="250" viewBox="0 0 253 250" fill="none" xmlns="http://www.w3.org/2000/svg">
<path d="M71.8072 56.543C73.5929 55.0327 75.3972 53.5505 77.2063 52.1106C79.4298 50.3496 81.6643 48.6465 83.9097 47.0012C84.921 46.2533 85.9325 45.5243 86.9578 44.8092C88.229 43.9025 89.5003 43.024 90.7763 42.1594C92.0522 41.2949 93.3328 40.4538 94.6042 39.6315C95.7364 38.9026 96.8778 38.183 98.0286 37.4729C99.1794 36.7628 100.364 36.0434 101.583 35.3147C103.062 34.449 104.519 33.6052 105.955 32.7832C112.34 29.1653 118.951 25.9661 125.746 23.2053C135.096 19.4745 143.088 17.5454 148.547 17.7297C169.767 18.4331 193.644 36.01 213.315 64.0958C216.145 68.1291 218.886 72.3887 221.54 76.8747C222.007 77.6631 222.473 78.4608 222.911 79.2491C223.57 80.3877 224.216 81.5389 224.851 82.7025C226.405 85.5177 227.916 88.4204 229.384 91.4105C230.739 94.1754 232.057 96.9979 233.335 99.8782C234.287 102.017 235.216 104.199 236.103 106.413L236.369 107.083C238.816 113.063 241.035 119.24 243.026 125.615C243.765 127.988 244.481 130.394 245.173 132.842L245.543 134.15C246.65 138.211 247.653 142.341 248.55 146.539C249.056 148.858 249.525 151.203 249.957 153.572C250.86 158.297 251.09 163.125 250.641 167.911C250.635 167.994 250.624 168.077 250.609 168.159C250.437 169.868 250.166 171.566 249.796 173.243C246.974 186.149 238.716 196.791 227.55 205.538C217.859 213.134 205.969 219.316 193.541 224.302C178.742 230.243 163.172 234.51 149.602 237.51C147.568 237.966 145.59 238.383 143.672 238.797C139.427 239.66 133.282 241.384 129.654 242C124.411 242.903 169.154 250.703 145.154 243C140.435 243.628 120.154 236.5 120.154 236.5C120.154 236.5 111.558 234 109.532 233.921C94.0784 233.299 25.4998 235.504 22.7754 147.221C22.7506 146.391 22.7303 145.547 22.7147 144.699C22.6098 135.494 24.0657 126.344 27.0194 117.646C28.8068 112.315 31.0312 107.146 33.6699 102.192C39.4697 91.2035 47.2036 80.9313 55.9801 71.5797C60.9703 66.2704 66.2544 61.2502 71.8072 56.543Z" fill="#D7B8EF"/>
<path d="M223.83 89.0309C223.726 89.5357 223.606 90.0484 223.479 90.5611C217.493 92.0679 208.538 95.2063 199.797 101.585C188.906 109.535 176.636 123.965 172.969 149.495C172.472 149.69 171.967 149.895 171.462 150.091C175.054 123.546 187.764 108.609 199.019 100.414C208.25 93.6891 217.733 90.496 223.83 89.0309Z" fill="white"/>
<path d="M20.5789 135.697C20.1495 135.39 19.728 135.08 19.309 134.75C20.9225 123.846 20.1079 106.954 7.95999 86.8137C-2.16847 69.9841 -1.7651 50.7213 9.1675 31.0863C10.0939 29.4277 11.0534 27.8325 12.0457 26.3005C12.5662 26.3266 13.0988 26.3639 13.6436 26.4124C12.522 28.1248 11.4212 29.9204 10.375 31.802C-0.432682 51.2339 -0.838654 69.4922 9.15969 86.0824C21.7916 107.037 22.3746 124.569 20.5789 135.697Z" fill="white"/>
<path d="M89.9974 157.13L88.4594 156.94C85.1622 147.241 78.3673 133.753 65.1759 127.656C61.1058 125.774 57.387 125.769 54.1236 127.656C48.3983 130.961 44.8097 139.46 42.6289 147.348C42.1656 147.194 41.7076 147.033 41.26 146.856C43.5189 138.757 47.2871 129.979 53.4209 126.443C57.0981 124.322 61.2515 124.301 65.764 126.393C79.6946 132.821 86.6924 147.145 89.9974 157.13Z" fill="white"/>
<path d="M183.668 197.766C183.668 197.766 162.453 206.708 165.802 215.632C169.151 224.555 184.279 231.264 180.061 238.533C175.842 245.801 187.025 240.755 187.025 240.755C187.025 240.755 194.283 222.89 182.559 220.657C170.835 218.424 203.214 215.075 196.515 196.65C189.817 178.225 183.668 197.766 183.668 197.766Z" fill="#89BBFE"/>
<path d="M150.852 205.063C150.852 205.063 134.691 211.868 137.244 218.671C139.797 225.474 151.297 230.58 148.103 236.107C144.91 241.635 153.402 237.809 153.402 237.809C153.402 237.809 158.929 224.201 150.001 222.499C141.072 220.797 165.735 218.247 160.631 204.215C155.528 190.183 150.852 205.063 150.852 205.063Z" fill="#89BBFE"/>
<path d="M130.332 69.3154C130.332 69.3154 125.01 34.0896 89.8257 37.9021C89.8257 37.9021 127.04 49.1288 119.16 74.3562L130.332 69.3154Z" fill="#89BBFE"/>
<path d="M94.9134 38.4719C94.9134 38.4719 90.1042 31.6043 85.1415 34.7219C80.1787 37.8396 80.7747 45.8809 80.7747 45.8809C80.7747 45.8809 82.9633 33.6185 94.9134 38.4719Z" fill="#89BBFE"/>
<path d="M93.9894 38.7295C93.9894 38.7295 95.3661 30.4591 89.6383 29.21C83.9104 27.9608 78.7083 34.1129 78.7083 34.1129C78.7083 34.1129 88.8575 26.8965 93.9894 38.7295Z" fill="#89BBFE"/>
<path d="M96.8729 38.8546C96.8729 38.8546 90.4945 33.4104 86.4634 37.6757C82.4323 41.941 85.0321 49.5634 85.0321 49.5634C85.0321 49.5634 84.0874 37.1526 96.8729 38.8546Z" fill="#89BBFE"/>
<path d="M199.459 59.4783C199.459 59.4783 216.307 28.091 185.856 10.0591C185.856 10.0591 208.924 41.3501 187.493 56.8213L199.459 59.4783Z" fill="#89BBFE"/>
<path d="M217.212 93.3094C228.376 138.812 213.342 197.254 178.437 205.821C143.531 214.388 143.544 206.448 132.375 160.935C130.779 154.429 129.041 147.52 127.339 140.418C117.112 97.7933 108.063 48.3767 137.991 41.0328C172.914 32.4683 206.051 47.8042 217.212 93.3094Z" fill="#89BBFE"/>
<path d="M139.263 20.5026C142.646 26.1576 142.094 32.9446 138.004 35.6615C133.913 38.3783 133.395 32.372 130.001 26.7145C126.608 21.0569 121.616 17.8976 125.707 15.1729C129.798 12.4482 135.867 14.8476 139.263 20.5026Z" fill="#89BBFE"/>
<path d="M152.023 8.92699C155.406 14.582 154.856 21.369 150.766 24.0833C146.675 26.7975 146.167 20.7834 142.761 15.1285C139.354 9.47349 134.378 6.30899 138.469 3.59211C142.56 0.875225 148.626 3.259 152.023 8.92699Z" fill="#89BBFE"/>
<path d="M189.588 13.5646C189.588 13.5646 189.848 5.18493 184.011 4.7165C178.174 4.24807 173.833 11.0091 173.833 11.0091C173.833 11.0091 182.928 2.51749 189.588 13.5646Z" fill="#89BBFE"/>
<path d="M188.693 13.2184C188.693 13.2184 194.751 7.42033 190.928 2.98848C187.105 -1.44338 179.23 0.36528 179.23 0.36528C179.23 0.36528 191.675 0.669758 188.693 13.2184Z" fill="#89BBFE"/>
<path d="M190.928 15.0427C190.928 15.0427 189.086 6.86344 183.308 7.86796C177.531 8.87248 175.035 16.5261 175.035 16.5261C175.035 16.5261 181.711 6.01767 190.928 15.0427Z" fill="#89BBFE"/>
<path d="M152.382 13.3225C152.382 13.3225 162.396 29.9231 157.454 39.8382C152.512 49.7532 153.436 40.6189 153.436 40.6189C153.436 40.6189 152.949 21.8401 152.382 13.3225Z" fill="#89BBFE"/>
<path d="M139.529 26.6702C139.529 26.6702 149.55 43.2786 144.606 53.1884C139.661 63.0983 140.588 53.9691 140.588 53.9691C140.588 53.9691 140.098 35.1904 139.529 26.6702Z" fill="#89BBFE"/>
<path d="M200.416 58.5728C200.416 58.5728 224.239 72.9015 220.884 86.2985C220.884 86.2985 214.139 69.5522 196.136 71.2255C178.132 72.8989 200.416 58.5728 200.416 58.5728Z" fill="#89BBFE"/>
<path d="M198.949 76.2898C198.949 76.2898 223.554 82.3768 222.206 96.1199C222.206 96.1199 214.488 81.1797 196.924 85.4788C179.361 89.7779 198.949 76.2898 198.949 76.2898Z" fill="#89BBFE"/>
<path d="M204.77 85.2133C204.77 85.2133 228.218 94.8421 224.868 108.239C224.868 108.239 219.424 92.3308 201.421 94.0041C183.418 95.6774 204.77 85.2133 204.77 85.2133Z" fill="#89BBFE"/>
<path d="M62.2221 246.592C66.6449 246.611 71.064 246.335 75.45 245.765C79.0641 246.343 82.72 246.62 86.38 246.592C95.975 246.592 103.751 244.929 103.751 242.879C103.751 240.828 95.975 239.165 86.38 239.165C85.771 239.165 85.1673 239.165 84.5739 239.186C80.7224 237.364 72.1658 236.102 62.2221 236.102C48.6741 236.102 37.6895 238.444 37.6895 241.348C37.6895 244.253 48.6741 246.592 62.2221 246.592Z" fill="#89BBFE"/>
<path d="M119.077 125.844C119.077 125.844 124.542 137.295 124.021 136.514C123.501 135.733 124.802 126.104 124.802 126.104L131.568 134.172L134.691 123.762L138.594 133.131L144.84 120.379C144.84 120.379 125.582 112.312 119.077 125.844Z" fill="white"/>
<path d="M148.09 145.292C148.09 145.292 142.339 138.177 142.87 138.651C143.401 139.124 142.701 145.563 142.701 145.563L135.911 140.774L133.54 147.868L129.377 142.003L124.2 150.877C124.2 150.877 142.714 154.7 148.09 145.292Z" fill="white"/>
<path d="M68.2467 130.154L72.8477 157.593L68.6865 233.512H61.4155C61.4155 233.512 54.3032 181.137 56.4527 152.388C56.9264 146.013 58.506 128.967 58.506 128.967L68.2467 130.154Z" fill="#FF5736"/>
<path fill-rule="evenodd" clip-rule="evenodd" d="M60.083 241.286H66.1128C66.3558 241.275 66.5846 241.168 66.7494 240.99C66.9142 240.811 67.0015 240.574 66.9924 240.331V238.717C67.0008 238.475 66.9132 238.238 66.7485 238.06C66.5838 237.882 66.3553 237.776 66.1128 237.765H60.083C59.8405 237.776 59.612 237.882 59.4473 238.06C59.2826 238.238 59.195 238.475 59.2034 238.717V240.339C59.1964 240.58 59.2846 240.815 59.4492 240.992C59.6138 241.17 59.8414 241.275 60.083 241.286Z" fill="#2E3C5A"/>
<path fill-rule="evenodd" clip-rule="evenodd" d="M49.8582 239.758C49.8582 239.758 49.5146 239.498 49.5146 238.764C49.5146 235.87 54.0506 237.281 55.7343 236.281C57.1552 235.438 59.4792 233.31 59.5156 230.694C59.5156 230.694 59.5156 229.229 61.2045 229.229H63.859C64.4393 229.229 65.4022 229.674 65.5479 230.53H67.2603C67.864 230.53 68.7332 230.66 68.7332 232.466V238.626C68.7332 239.084 68.5563 239.636 68.2596 239.753C68.2221 239.986 68.1584 240.214 68.0696 240.432C67.4649 240.621 66.8312 240.701 66.1985 240.666C65.6442 240.575 64.1166 239.758 64.1166 239.758C63.9828 239.705 63.8699 239.61 63.7949 239.487C63.7198 239.364 63.6866 239.22 63.7002 239.076C63.6928 239.003 63.6707 238.931 63.6352 238.866C63.5998 238.801 63.5516 238.744 63.4936 238.698C63.4357 238.652 63.369 238.618 63.2977 238.598C63.2263 238.578 63.1517 238.573 63.0783 238.582C62.4823 238.582 61.2982 239.084 61.1473 239.175C60.9964 239.266 60.9235 239.436 60.9235 239.753C60.9235 240.071 59.5676 240.745 57.8553 240.851C56.1429 240.958 49.8582 239.758 49.8582 239.758Z" fill="#2E3C5A"/>
<path fill-rule="evenodd" clip-rule="evenodd" d="M49.8584 241.286H60.9263C61.0308 241.281 61.1291 241.235 61.1998 241.158C61.2706 241.081 61.3079 240.979 61.3036 240.875V240.177C61.3057 240.126 61.2976 240.074 61.2798 240.026C61.262 239.977 61.2347 239.933 61.1997 239.895C61.1646 239.857 61.1225 239.826 61.0755 239.804C61.0286 239.783 60.9779 239.771 60.9263 239.769H49.8584C49.8068 239.771 49.756 239.783 49.7091 239.804C49.6622 239.826 49.62 239.857 49.585 239.895C49.5499 239.933 49.5227 239.977 49.5049 240.026C49.4871 240.074 49.4789 240.126 49.481 240.177V240.875C49.4768 240.979 49.5141 241.081 49.5848 241.158C49.6556 241.235 49.7539 241.281 49.8584 241.286Z" fill="#2E3C5A"/>
<path fill-rule="evenodd" clip-rule="evenodd" d="M59.5834 241.286H68.2597C68.3642 241.281 68.4626 241.235 68.5333 241.158C68.604 241.081 68.6413 240.979 68.6371 240.875V240.177C68.6392 240.126 68.6311 240.074 68.6132 240.026C68.5954 239.977 68.5682 239.933 68.5331 239.895C68.4981 239.857 68.4559 239.826 68.409 239.804C68.3621 239.783 68.3113 239.771 68.2597 239.769H59.5834C59.5316 239.77 59.4806 239.782 59.4333 239.804C59.3861 239.825 59.3436 239.856 59.3083 239.894C59.273 239.932 59.2455 239.976 59.2275 240.025C59.2095 240.074 59.2014 240.125 59.2034 240.177V240.875C59.2014 240.927 59.2095 240.978 59.2275 241.027C59.2455 241.076 59.2729 241.121 59.3082 241.159C59.3435 241.197 59.3859 241.228 59.4332 241.25C59.4804 241.271 59.5314 241.284 59.5834 241.286Z" fill="#2E3C5A"/>
<path fill-rule="evenodd" clip-rule="evenodd" d="M101.201 231.043C101.201 231.043 100.867 229.867 100.42 229.867H97.3152C96.8832 229.867 95.3426 230.301 95.3426 231.714C95.3426 231.714 94.3641 232.654 94.1976 232.88C94.031 233.107 93.8853 233.346 93.8853 234.127V238.483C93.8853 239.045 93.7474 241.265 97.1643 241.265H103.683C104.742 241.265 105.56 240.224 105.56 239.225C105.56 238.225 105.377 237.229 104.232 235.391C103.087 233.554 102.257 232.188 102.257 232.188C102.257 232.188 101.747 231.319 101.201 231.043Z" fill="#2E3C5A"/>
<path fill-rule="evenodd" clip-rule="evenodd" d="M97.2606 229.869C96.7661 229.903 95.3426 230.359 95.3426 231.714C95.3426 231.714 94.3641 232.654 94.1976 232.88C94.031 233.107 93.8853 233.346 93.8853 234.127V238.483C93.8853 239.045 93.7474 241.265 97.1643 241.265H98.0231L97.6665 239.045C97.6665 239.045 96.217 234.283 96.0765 232.347C95.936 230.411 97.2424 229.869 97.2606 229.869Z" fill="#2E3C5A"/>
<path d="M68.2467 130.154L69.8706 157.153L95.6602 232.193L100.623 230.293C100.623 230.293 93.4482 176.286 87.6813 150.307C86.4243 144.652 80.6887 131.668 80.6887 131.668L68.2467 130.154Z" fill="#FF5736"/>
<path d="M117.052 63.996L119.883 62.203C119.883 62.203 118.428 54.5181 116.219 53.0946C114.01 51.6711 111.389 55.5305 111.389 55.5305C111.389 55.5305 111.943 57.425 117.052 63.996Z" fill="#B46E5B"/>
<path d="M111.384 55.5228L116.659 53.3966C116.659 53.3966 113.351 46.5289 111.857 47.1509C110.364 47.7729 111.384 55.5228 111.384 55.5228Z" fill="#D6806B"/>
<path d="M119.883 62.2029C119.883 62.2029 120.487 53.9793 119.16 52.9124C117.832 51.8454 117.955 59.7436 117.955 59.7436L119.883 62.2029Z" fill="#B46E5B"/>
<path d="M94.1197 105.559C94.1197 105.559 106.845 81.6168 103.762 80.6513C100.678 79.6859 96.0403 81.2421 84.3165 101.197L94.1197 105.559Z" fill="#E3AB84"/>
<path d="M101.315 89.2418C101.315 89.2418 113.46 63.4782 110.114 59.6163C110.114 59.6163 110.413 57.3913 108.342 60.1238C106.369 62.7262 99.2098 70.4188 94.1664 86.8476L101.315 89.2418Z" fill="#E3AB84"/>
<path d="M110.775 62.4346L107.949 60.6416C107.949 60.6416 109.401 52.9567 111.61 51.5332C113.82 50.1097 116.44 53.9691 116.44 53.9691C116.44 53.9691 115.868 55.8636 110.775 62.4346Z" fill="#E3AB84"/>
<path d="M116.427 53.9613L111.152 51.8351C111.152 51.8351 114.462 44.9674 115.956 45.5894C117.45 46.2114 116.427 53.9613 116.427 53.9613Z" fill="#D6806B"/>
<path d="M107.936 60.6416C107.936 60.6416 107.329 52.4181 108.657 51.3511C109.984 50.2841 109.861 58.1823 109.861 58.1823L107.936 60.6416Z" fill="#E3AB84"/>
<path fill-rule="evenodd" clip-rule="evenodd" d="M86.7471 114.037C86.7471 114.037 89.2401 113.189 90.0755 112.476C90.9109 111.763 100.451 96.2031 100.451 96.2031L91.3429 89.8195L83.6528 100.749C83.6528 100.749 85.1102 104.216 86.7471 114.037Z" fill="white"/>
<path fill-rule="evenodd" clip-rule="evenodd" d="M71.5855 99.0762C74.8177 99.0762 75.4891 96.5935 75.4891 96.5935L85.5863 99.4171C87.9284 105.832 87.3429 116.333 87.3429 116.333C85.6592 127.221 86.0912 128.223 87.4678 139.049C87.5375 139.84 87.4901 140.637 87.3273 141.414C84.0301 147.14 58.4617 146.479 55.2868 140.954C55.1254 140.175 55.0789 139.377 55.1489 138.586C56.5229 127.76 57.5326 127.221 55.8489 116.333C55.8489 116.333 59.3101 106.686 55.8645 99.6929L67.7054 96.5961C67.7054 96.5961 68.3559 99.0762 71.5855 99.0762Z" fill="white"/>
<path fill-rule="evenodd" clip-rule="evenodd" d="M71.328 83.0506C73.527 82.9803 75.3981 85.2262 75.4918 88.0419L75.726 95.4197C75.8171 98.2354 74.0891 100.596 71.8901 100.666C69.6911 100.736 67.8174 98.4879 67.7263 95.6721L67.4921 88.297C67.401 85.4812 69.1368 83.1208 71.328 83.0506Z" fill="#E3AB84"/>
<path fill-rule="evenodd" clip-rule="evenodd" d="M71.0547 76.9351C73.2563 76.8648 75.1275 79.1107 75.2185 81.9264L75.4528 89.3016C75.5438 92.1174 73.8159 94.4803 71.6168 94.5506C69.4178 94.6182 67.5441 92.3724 67.453 89.5566L67.2188 82.1815C67.1303 79.3657 68.8583 77.0027 71.0547 76.9351Z" fill="#D6806B"/>
<path fill-rule="evenodd" clip-rule="evenodd" d="M57.1293 77.4999C57.0884 77.9318 57.1331 78.3674 57.2608 78.782C57.3885 79.1966 57.5967 79.5819 57.8734 79.916C58.1502 80.25 58.4901 80.5262 58.8737 80.7288C59.2573 80.9313 59.6771 81.0562 60.109 81.0964H60.26C60.005 79.9403 59.9112 78.7545 59.9815 77.5728L60.0492 76.5656C60.1871 74.5072 57.426 74.4629 57.1293 77.4999Z" fill="#D6806B"/>
<path fill-rule="evenodd" clip-rule="evenodd" d="M84.4908 79.35C84.4727 79.7834 84.3695 80.2089 84.1869 80.6024C84.0044 80.9958 83.7461 81.3494 83.4269 81.6431C83.1076 81.9367 82.7337 82.1645 82.3264 82.3136C81.9191 82.4627 81.4864 82.5301 81.0531 82.5119H80.8995C81.3097 81.4013 81.5636 80.2391 81.6542 79.0586L81.7219 78.0515C81.8676 75.9774 84.6209 76.3 84.4908 79.35Z" fill="#D6806B"/>
<path fill-rule="evenodd" clip-rule="evenodd" d="M72.1034 59.304C66.144 58.9006 60.9132 63.6135 60.5072 69.7734L59.8202 79.9721C60.744 86.2933 65.5454 91.5319 69.9018 91.9066C72.9778 92.0914 81.092 87.5971 81.498 81.4372L82.1851 71.2489C82.6014 65.0787 78.0655 59.7074 72.1034 59.304Z" fill="#E3AB84"/>
<path fill-rule="evenodd" clip-rule="evenodd" d="M77.1573 80.6176C76.0253 81.1901 75.4007 82.3273 75.765 83.1575C76.1294 83.9876 77.3265 84.1984 78.4715 83.6285C79.6166 83.0586 80.2281 81.9214 79.8664 81.0886C79.5047 80.2558 78.2919 80.0476 77.1573 80.6176Z" fill="#D6806B"/>
<path fill-rule="evenodd" clip-rule="evenodd" d="M62.1494 79.4518C61.452 79.7303 61.3166 80.8285 61.8475 81.9059C62.3784 82.9832 63.3777 83.6312 64.0752 83.3528C64.7726 83.0743 64.9079 81.9761 64.3744 80.8987C63.8409 79.8213 62.8468 79.1682 62.1494 79.4518Z" fill="#D6806B"/>
<path d="M70.4796 82.1919C70.0476 82.1919 69.5193 82.0774 69.3137 81.8171L69.5193 81.6558C69.757 81.8372 70.0508 81.9293 70.3495 81.916C70.5412 81.9429 70.7367 81.9196 70.9168 81.8484C70.9168 81.8249 70.9168 81.5621 70.4874 80.0475L70.7476 79.9799C71.2265 81.7104 71.1874 81.8666 71.1692 81.9316C71.1432 82.0383 71.0391 82.1086 70.8543 82.1476C70.7312 82.175 70.6057 82.1898 70.4796 82.1919Z" fill="#A34F49"/>
<path fill-rule="evenodd" clip-rule="evenodd" d="M67.4217 72.8937C67.5325 72.953 67.6152 73.054 67.6515 73.1743C67.6879 73.2946 67.675 73.4244 67.6156 73.5352C67.5562 73.6459 67.4553 73.7286 67.335 73.765C67.2147 73.8013 67.0849 73.7884 66.9741 73.729C66.5402 73.5091 66.0605 73.3945 65.574 73.3945C65.0875 73.3945 64.6079 73.5091 64.1739 73.729C64.0632 73.7887 63.9332 73.802 63.8127 73.7659C63.6921 73.7298 63.5909 73.6472 63.5312 73.5365C63.4715 73.4257 63.4582 73.2957 63.4943 73.1752C63.5304 73.0546 63.613 72.9534 63.7237 72.8937C65.5948 71.8735 67.4191 72.8911 67.4217 72.8937Z" fill="#1C2036"/>
<path fill-rule="evenodd" clip-rule="evenodd" d="M78.5653 73.859C78.6174 73.8932 78.6623 73.9373 78.6974 73.9888C78.7324 74.0403 78.757 74.0983 78.7697 74.1593C78.7824 74.2203 78.783 74.2832 78.7713 74.3444C78.7597 74.4057 78.7361 74.464 78.7019 74.5161C78.6678 74.5683 78.6237 74.6131 78.5721 74.6482C78.5206 74.6833 78.4627 74.7078 78.4017 74.7205C78.3407 74.7332 78.2777 74.7338 78.2165 74.7221C78.1553 74.7105 78.097 74.6869 78.0448 74.6528C77.6311 74.397 77.1629 74.2422 76.6783 74.2011C76.1936 74.1599 75.706 74.2335 75.2551 74.4159C75.1972 74.4451 75.1341 74.4621 75.0694 74.466C75.0047 74.4699 74.94 74.4606 74.8791 74.4386C74.8181 74.4166 74.7623 74.3824 74.7151 74.3381C74.6678 74.2938 74.6301 74.2403 74.6042 74.1809C74.5784 74.1215 74.5649 74.0575 74.5646 73.9927C74.5643 73.9279 74.5772 73.8638 74.6026 73.8042C74.6279 73.7446 74.6652 73.6908 74.7121 73.6461C74.7589 73.6014 74.8144 73.5667 74.8751 73.5441C76.8243 72.6854 78.5601 73.8564 78.5653 73.859Z" fill="#1C2036"/>
<path fill-rule="evenodd" clip-rule="evenodd" d="M83.273 76.7998C83.273 76.7998 81.8156 76.7348 81.7272 78.0412C81.1623 77.1179 80.9429 76.0244 81.1078 74.9547C81.1078 74.9547 78.5497 71.5248 78.9192 67.9127C79.2887 64.3006 82.1618 63.7177 82.1618 63.7177C88.8082 66.1483 83.692 70.6192 83.273 76.7998Z" fill="#1C2036"/>
<path fill-rule="evenodd" clip-rule="evenodd" d="M58.6832 75.1368C58.6832 75.1368 60.1379 75.2695 60.0494 76.5759C60.7304 75.7362 61.0919 74.6823 61.0696 73.6013C61.0696 73.6013 64.0675 70.5462 64.1924 66.9158C64.3173 63.2855 61.5432 62.3226 61.5432 62.3226C54.6313 63.8372 59.1022 68.9561 58.6832 75.1368Z" fill="#1C2036"/>
<path fill-rule="evenodd" clip-rule="evenodd" d="M79.9678 68.5686C79.9678 68.5686 79.5228 69.6694 78.7135 69.5106C77.9041 69.3519 77.0271 68.8314 77.4123 67.6265C77.4123 67.6265 74.266 64.8498 71.9239 65.3598C69.5817 65.8699 64.4264 69.7292 59.1722 69.1203C53.918 68.5113 54.3214 64.6025 58.1599 58.7316C61.0798 54.2607 65.0145 52.6732 73.4437 53.9614C81.8728 55.2496 82.552 60.0874 82.1564 63.7177C81.7609 67.348 79.9678 68.5686 79.9678 68.5686Z" fill="#1C2036"/>
<path fill-rule="evenodd" clip-rule="evenodd" d="M65.3373 78.9155C65.6027 78.9334 65.8675 78.8722 66.0982 78.7396C66.3289 78.607 66.5151 78.4091 66.6333 78.1707C66.7514 77.9323 66.7963 77.6643 66.7621 77.4004C66.728 77.1365 66.6164 76.8887 66.4414 76.6883C66.2664 76.4879 66.036 76.3438 65.7791 76.2743C65.5223 76.2049 65.2506 76.2131 64.9985 76.298C64.7463 76.3829 64.525 76.5407 64.3625 76.7513C64.2 76.962 64.1036 77.2161 64.0855 77.4816C64.0735 77.6579 64.0963 77.8349 64.1527 78.0024C64.2092 78.17 64.298 78.3247 64.4143 78.4579C64.5305 78.5911 64.6719 78.7 64.8302 78.7785C64.9886 78.857 65.1609 78.9036 65.3373 78.9155Z" fill="#1C2036"/>
<path fill-rule="evenodd" clip-rule="evenodd" d="M76.1633 79.6469C76.4287 79.6648 76.6935 79.6036 76.9242 79.4711C77.1549 79.3385 77.3411 79.1405 77.4593 78.9021C77.5774 78.6638 77.6223 78.3957 77.5881 78.1318C77.554 77.868 77.4424 77.6202 77.2674 77.4197C77.0924 77.2193 76.862 77.0752 76.6051 77.0058C76.3483 76.9363 76.0766 76.9445 75.8245 77.0295C75.5723 77.1144 75.351 77.2721 75.1885 77.4828C75.026 77.6934 74.9296 77.9476 74.9115 78.213C74.8879 78.569 75.0064 78.9198 75.2411 79.1886C75.4757 79.4574 75.8073 79.6222 76.1633 79.6469Z" fill="#1C2036"/>
<path fill-rule="evenodd" clip-rule="evenodd" d="M73.5087 84.1516C73.4202 85.4528 71.5751 86.5744 70.2687 86.4937C68.9623 86.413 67.4712 85.1769 67.5597 83.8757C67.5677 83.7599 67.6211 83.652 67.7084 83.5755C67.7957 83.4989 67.9096 83.46 68.0255 83.4671L73.1027 83.6962C73.2164 83.7042 73.3225 83.7563 73.3983 83.8413C73.4741 83.9264 73.5137 84.0377 73.5087 84.1516Z" fill="white"/>
<path d="M57.0254 64.6884C58.3189 64.6884 59.3675 63.6398 59.3675 62.3463C59.3675 61.0528 58.3189 60.0042 57.0254 60.0042C55.7318 60.0042 54.6832 61.0528 54.6832 62.3463C54.6832 63.6398 55.7318 64.6884 57.0254 64.6884Z" fill="#1C2036"/>
<path d="M59.8878 62.086C61.9 62.086 63.5312 60.4548 63.5312 58.4426C63.5312 56.4305 61.9 54.7993 59.8878 54.7993C57.8757 54.7993 56.2445 56.4305 56.2445 58.4426C56.2445 60.4548 57.8757 62.086 59.8878 62.086Z" fill="#1C2036"/>
<path d="M63.0109 60.5247C65.023 60.5247 66.6542 58.8935 66.6542 56.8814C66.6542 54.8692 65.023 53.238 63.0109 53.238C60.9987 53.238 59.3676 54.8692 59.3676 56.8814C59.3676 58.8935 60.9987 60.5247 63.0109 60.5247Z" fill="#1C2036"/>
<path d="M68.2155 57.9222C70.2276 57.9222 71.8588 56.291 71.8588 54.2788C71.8588 52.2667 70.2276 50.6355 68.2155 50.6355C66.2033 50.6355 64.5721 52.2667 64.5721 54.2788C64.5721 56.291 66.2033 57.9222 68.2155 57.9222Z" fill="#1C2036"/>
<path d="M72.6395 59.4836C74.6517 59.4836 76.2829 57.8524 76.2829 55.8402C76.2829 53.8281 74.6517 52.1969 72.6395 52.1969C70.6274 52.1969 68.9962 53.8281 68.9962 55.8402C68.9962 57.8524 70.6274 59.4836 72.6395 59.4836Z" fill="#1C2036"/>
<path d="M76.8034 60.2642C78.8155 60.2642 80.4467 58.633 80.4467 56.6209C80.4467 54.6087 78.8155 52.9775 76.8034 52.9775C74.7912 52.9775 73.16 54.6087 73.16 56.6209C73.16 58.633 74.7912 60.2642 76.8034 60.2642Z" fill="#1C2036"/>
<path d="M79.9263 63.9076C81.9384 63.9076 83.5696 62.2765 83.5696 60.2643C83.5696 58.2521 81.9384 56.621 79.9263 56.621C77.9141 56.621 76.283 58.2521 76.283 60.2643C76.283 62.2765 77.9141 63.9076 79.9263 63.9076Z" fill="#1C2036"/>
<path d="M83.0491 67.5508C85.0613 67.5508 86.6924 65.9197 86.6924 63.9075C86.6924 61.8953 85.0613 60.2642 83.0491 60.2642C81.0369 60.2642 79.4058 61.8953 79.4058 63.9075C79.4058 65.9197 81.0369 67.5508 83.0491 67.5508Z" fill="#1C2036"/>
<path d="M173.875 229.2C174.697 235.748 174.093 234.449 181.554 237.398C189.016 240.346 183.738 240.521 182.942 240.349C180.415 239.789 178.086 238.093 172.706 238.787C167.327 239.482 170.598 233.697 170.598 233.697L170.799 227.683L173.875 229.2Z" fill="#E3AB84"/>
<path d="M160.269 249.908C165.983 249.932 171.693 249.575 177.359 248.838C181.216 249.507 186.129 249.908 191.482 249.908C203.877 249.908 213.923 247.761 213.923 245.111C213.923 242.462 203.877 240.313 191.482 240.313C190.695 240.313 189.914 240.321 189.14 240.339C184.162 237.996 173.11 236.354 160.254 236.354C142.75 236.354 128.557 239.389 128.557 243.121C128.557 246.852 142.766 249.908 160.269 249.908Z" fill="#89BBFE"/>
<path d="M181.56 237.398C189.021 240.349 183.743 240.521 182.947 240.349C180.42 239.79 178.091 238.093 172.712 238.788C167.333 239.482 170.604 233.697 170.604 233.697C170.604 233.697 174.814 236.315 177.026 235.665L181.56 237.398Z" fill="#D86B50"/>
<path d="M144.801 229.2C143.979 235.748 144.58 234.449 137.121 237.398C129.663 240.346 134.938 240.521 135.732 240.349C138.261 239.789 140.59 238.093 145.969 238.787C151.348 239.482 148.077 233.697 148.077 233.697L147.877 227.683L144.801 229.2Z" fill="#E3AB84"/>
<path d="M137.121 237.398C129.66 240.349 134.938 240.521 135.732 240.349C138.261 239.79 140.59 238.093 145.969 238.788C151.349 239.482 148.077 233.697 148.077 233.697C148.077 233.697 143.864 236.315 141.652 235.665L137.121 237.398Z" fill="#D86B50"/>
<path d="M148.595 144.691L153.592 164.62L148.908 231.501L142.662 231.761C142.662 231.761 133.697 182.623 135.43 159.366C135.815 154.21 140.715 143.73 140.715 143.73L148.595 144.691Z" fill="#2E3C5A"/>
<path d="M148.595 144.691V164.469L170.369 230.91H174.793C174.793 230.91 170.182 180.684 165.513 159.678C164.498 155.103 158.669 145.919 158.669 145.919L148.595 144.691Z" fill="#474973"/>
<path fill-rule="evenodd" clip-rule="evenodd" d="M152.603 110.852L153.993 100.63C154.391 97.6917 156.551 95.5369 158.789 95.8414C161.027 96.1459 162.534 98.7977 162.133 101.736L160.22 112.223C160.22 112.223 151.408 115.984 152.603 110.852Z" fill="#B46E5B"/>
<path fill-rule="evenodd" clip-rule="evenodd" d="M158.789 95.8466C156.551 95.5421 154.391 97.6968 153.993 100.635L152.842 109.087C153.669 109.746 154.658 110.171 155.705 110.318C157.62 110.579 159.189 110.165 160.91 108.497L162.133 101.731C162.534 98.7977 161.027 96.1458 158.789 95.8466Z" fill="#A34F49"/>
<path fill-rule="evenodd" clip-rule="evenodd" d="M149.241 87.7611C149.157 87.7481 149.074 87.7377 148.98 87.7325C148.203 87.667 147.427 87.868 146.779 88.3024C146.131 88.7367 145.651 89.3786 145.416 90.1224C145.182 90.8662 145.207 91.6677 145.489 92.3951C145.77 93.1225 146.291 93.7325 146.965 94.1247C147.639 94.5169 148.426 94.668 149.198 94.5532C149.969 94.4384 150.679 94.0645 151.209 93.493C151.74 92.9215 152.061 92.1863 152.118 91.4085C152.175 90.6307 151.967 89.8565 151.526 89.2132C151.32 90.2099 150.807 91.3654 149.532 91.1155L150.136 89.2314C150.383 88.4637 149.774 87.899 149.241 87.7611Z" fill="#A34F49"/>
<path fill-rule="evenodd" clip-rule="evenodd" d="M171.72 94.4752C171.798 94.5116 171.876 94.548 171.949 94.5897C172.633 94.9613 173.17 95.5546 173.473 96.2721C173.775 96.9895 173.824 97.7885 173.612 98.5376C173.4 99.2867 172.939 99.9414 172.306 100.394C171.673 100.847 170.904 101.07 170.127 101.029C169.349 100.987 168.609 100.681 168.028 100.163C167.447 99.6449 167.06 98.9444 166.93 98.1769C166.8 97.4093 166.935 96.6203 167.312 95.9395C167.69 95.2588 168.288 94.7268 169.008 94.4309C168.634 95.3782 168.431 96.6247 169.633 97.114L170.153 95.209C170.369 94.4361 171.202 94.2982 171.72 94.4752Z" fill="#A34F49"/>
<path fill-rule="evenodd" clip-rule="evenodd" d="M155.45 107.63C159.546 109.124 166.323 103.115 170.819 97.5486L173.248 89.6243C174.15 86.6458 173.837 83.4313 172.377 80.6828C170.917 77.9342 168.429 75.875 165.456 74.9547C162.477 74.0518 159.263 74.3644 156.514 75.8243C153.765 77.2843 151.706 79.7728 150.786 82.7463L148.41 90.5013C149.123 97.2363 150.802 105.936 155.45 107.63Z" fill="#B46E5B"/>
<path fill-rule="evenodd" clip-rule="evenodd" d="M151.593 93.9782C152.444 93.8507 153.337 94.5897 153.589 95.6359C153.842 96.682 153.352 97.6293 152.501 97.7594C151.65 97.8895 150.758 97.1479 150.505 96.1043C150.253 95.0608 150.742 94.1083 151.593 93.9782Z" fill="#A34F49"/>
<path fill-rule="evenodd" clip-rule="evenodd" d="M164.498 98.0768C165.672 97.9206 166.684 98.6129 166.76 99.6382C166.835 100.664 165.945 101.598 164.772 101.754C163.598 101.91 162.583 101.215 162.51 100.193C162.437 99.1698 163.325 98.2329 164.498 98.0768Z" fill="#A34F49"/>
<path fill-rule="evenodd" clip-rule="evenodd" d="M164.662 89.4682C164.598 89.4764 164.536 89.4971 164.48 89.5292C164.424 89.5613 164.375 89.6042 164.336 89.6553C164.256 89.7585 164.22 89.8892 164.237 90.0186C164.253 90.148 164.321 90.2655 164.424 90.3453C164.527 90.4251 164.658 90.4606 164.787 90.4441C164.787 90.4441 166.416 90.2073 167.509 91.485C167.595 91.5844 167.717 91.6457 167.847 91.6555C167.978 91.6653 168.107 91.6227 168.207 91.5371C168.306 91.4515 168.368 91.3299 168.377 91.1991C168.387 91.0683 168.344 90.939 168.259 90.8396C166.815 89.1559 164.668 89.4682 164.662 89.4682Z" fill="#1C2036"/>
<path fill-rule="evenodd" clip-rule="evenodd" d="M153.493 86.2777C153.365 86.3049 153.254 86.3818 153.183 86.4914C153.112 86.6009 153.087 86.7342 153.114 86.8619C153.142 86.9896 153.219 87.1012 153.328 87.1722C153.438 87.2432 153.571 87.2678 153.699 87.2405C154.194 87.1445 154.706 87.1668 155.192 87.3057C155.677 87.4445 156.123 87.6959 156.494 88.0395C156.54 88.0851 156.595 88.1212 156.655 88.1456C156.715 88.17 156.78 88.1823 156.845 88.1819C156.91 88.1814 156.974 88.1681 157.034 88.1428C157.094 88.1174 157.148 88.0806 157.194 88.0343C157.239 87.988 157.275 87.9331 157.3 87.8729C157.324 87.8126 157.336 87.7482 157.336 87.6832C157.335 87.6182 157.322 87.5539 157.297 87.494C157.272 87.4342 157.235 87.3799 157.188 87.3342C155.611 85.791 153.498 86.2751 153.493 86.2777Z" fill="#1C2036"/>
<path d="M159.065 97.5565C158.654 97.5451 158.253 97.4296 157.899 97.2208C157.737 97.1167 157.664 97.0126 157.678 96.9007L157.938 96.9293V96.9111C158.081 97.0409 158.256 97.1306 158.445 97.1713C158.838 97.3014 159.226 97.3222 159.377 97.2234C159.528 97.1245 159.637 96.5259 159.556 95.5318L159.817 95.511C159.869 96.1356 159.895 97.2208 159.515 97.4472C159.377 97.5239 159.222 97.5617 159.065 97.5565Z" fill="#A34F49"/>
<path fill-rule="evenodd" clip-rule="evenodd" d="M174.151 93.2078L173.032 95.5083C173.032 95.5083 171.527 95.2481 171.127 96.5493C171.127 96.5493 170.518 94.8942 171.241 93.2833C171.241 93.2833 169.461 89.208 170.692 85.6401C171.37 83.5999 172.311 81.6568 173.492 79.8602C173.492 79.8602 177.323 85.6974 174.151 93.2078Z" fill="#1C2036"/>
<path fill-rule="evenodd" clip-rule="evenodd" d="M148.031 85.2081L147.671 87.7428C147.671 87.7428 149.066 88.3674 148.665 89.6686C148.665 89.6686 150.099 88.6276 150.404 86.8971C150.404 86.8971 154.159 84.5185 155.135 80.8752C156.111 77.2318 155.231 75.1733 155.231 75.1733C155.231 75.1733 149.61 77.211 148.031 85.2081Z" fill="#1C2036"/>
<path fill-rule="evenodd" clip-rule="evenodd" d="M154.82 98.7484C154.422 100.05 155.796 101.845 157.1 102.243C158.404 102.642 160.722 101.793 161.123 100.489C161.196 100.25 160.119 100.112 159.879 100.039L156.03 98.8603C155.796 98.7874 154.893 98.5089 154.82 98.7484Z" fill="white"/>
<path fill-rule="evenodd" clip-rule="evenodd" d="M173.703 81.3983C173.703 81.3983 171.132 60.2201 152.749 73.828C148.889 76.6906 144.843 79.6677 144.902 81.6143C145.126 88.9374 170.283 90.2568 173.703 81.3983Z" fill="#1C2036"/>
<path opacity="0.5" fill-rule="evenodd" clip-rule="evenodd" d="M173.492 79.8602C173.492 79.8602 161.781 89.1533 147.094 78.533L150.643 75.3398C150.643 75.3398 157.67 84.9218 173.518 79.7223L173.492 79.8602Z" fill="white"/>
<path d="M172.743 95.5629L172.584 95.3574C172.62 95.3287 176.269 92.4453 176.654 88.1045C176.894 85.3928 175.832 82.6838 173.495 80.0528C172.553 81.0365 165.014 88.6042 156.759 88.6068C156.499 88.6068 156.257 88.6068 156.004 88.5834C151.715 88.3387 147.937 86.02 144.798 81.6897L145.009 81.5361C148.109 85.8014 151.812 88.0837 156.02 88.3257C164.98 88.8306 173.318 79.8628 173.401 79.7717L173.5 79.6676L173.594 79.7743C176.048 82.4938 177.164 85.307 176.912 88.1305C176.516 92.5858 172.782 95.5343 172.743 95.5629Z" fill="#1C2036"/>
<path d="M171.939 100.579L171.013 110.858L171.272 110.882L172.199 100.602L171.939 100.579Z" fill="#F3E9D5"/>
<path fill-rule="evenodd" clip-rule="evenodd" d="M155.471 92.7446C155.287 92.7233 155.11 92.666 154.949 92.5758C154.788 92.4857 154.646 92.3645 154.532 92.2193C154.418 92.0741 154.334 91.9078 154.285 91.73C154.236 91.5521 154.222 91.3663 154.245 91.1832C154.257 91.0803 154.281 90.9791 154.315 90.8813L154.162 90.8058C153.986 90.7186 153.832 90.5943 153.709 90.4415C153.688 90.4063 153.68 90.3648 153.687 90.3245C153.694 90.2841 153.714 90.2474 153.745 90.2207C153.776 90.1941 153.816 90.1791 153.857 90.1786C153.897 90.178 153.937 90.1919 153.969 90.2177C154.088 90.3629 154.242 90.4749 154.417 90.543C154.246 90.4142 154.115 90.2402 154.039 90.0407C154.03 90.0192 154.025 89.9959 154.025 89.9725C154.025 89.949 154.03 89.9258 154.039 89.9041C154.048 89.8825 154.061 89.863 154.078 89.8467C154.095 89.8303 154.115 89.8176 154.137 89.8092C154.159 89.8008 154.182 89.7969 154.206 89.7977C154.229 89.7985 154.252 89.8041 154.273 89.8141C154.295 89.824 154.314 89.8382 154.329 89.8556C154.345 89.8731 154.357 89.8936 154.365 89.9158C154.428 90.0764 154.54 90.2129 154.685 90.3062L154.7 90.2931C154.59 90.1812 154.517 90.0374 154.492 89.882C154.488 89.8592 154.489 89.836 154.495 89.8137C154.5 89.7913 154.51 89.7702 154.523 89.7516C154.537 89.733 154.554 89.7172 154.574 89.7052C154.593 89.6932 154.615 89.6852 154.638 89.6816C154.661 89.678 154.684 89.6789 154.706 89.6843C154.728 89.6897 154.75 89.6994 154.768 89.713C154.787 89.7265 154.803 89.7436 154.815 89.7632C154.827 89.7828 154.835 89.8046 154.838 89.8273C154.856 89.9311 154.913 90.0242 154.997 90.0876C155.192 89.9905 155.406 89.9403 155.624 89.9409C155.842 89.9415 156.056 89.9929 156.25 90.0911C156.445 90.1892 156.613 90.3314 156.743 90.5062C156.872 90.681 156.959 90.8837 156.997 91.0981C157.034 91.3125 157.021 91.5326 156.958 91.741C156.896 91.9494 156.785 92.1402 156.636 92.2984C156.486 92.4565 156.302 92.5776 156.097 92.6519C155.893 92.7262 155.674 92.7517 155.458 92.7264L155.471 92.7446Z" fill="#1C2036"/>
<path fill-rule="evenodd" clip-rule="evenodd" d="M164.428 95.3471C164.611 95.3256 164.788 95.268 164.949 95.1777C165.11 95.0874 165.251 94.9662 165.365 94.821C165.478 94.6759 165.562 94.5097 165.611 94.332C165.661 94.1543 165.674 93.9686 165.651 93.7857C165.64 93.683 165.617 93.5818 165.584 93.4838L165.735 93.4084C165.91 93.3211 166.065 93.1968 166.187 93.044C166.217 93.0084 166.23 92.9627 166.226 92.9169C166.222 92.8711 166.199 92.8288 166.164 92.7994C166.146 92.7827 166.125 92.7699 166.102 92.7618C166.078 92.7537 166.054 92.7506 166.029 92.7525C166.005 92.7545 165.981 92.7615 165.959 92.7732C165.938 92.7848 165.919 92.8008 165.904 92.8202C165.786 92.9665 165.632 93.0788 165.456 93.1455C165.626 93.0167 165.757 92.8427 165.833 92.6433C165.842 92.6219 165.847 92.5991 165.846 92.576C165.846 92.553 165.841 92.5302 165.832 92.5091C165.823 92.4879 165.809 92.4689 165.793 92.453C165.776 92.4372 165.756 92.4249 165.735 92.4169C165.713 92.4085 165.69 92.4045 165.667 92.4051C165.644 92.4057 165.621 92.4108 165.6 92.4203C165.579 92.4297 165.56 92.4433 165.544 92.4601C165.528 92.4769 165.516 92.4967 165.508 92.5183C165.446 92.6794 165.334 92.8163 165.188 92.9087L165.172 92.8957C165.284 92.7839 165.357 92.6402 165.383 92.4845C165.39 92.4387 165.379 92.392 165.351 92.3546C165.324 92.3171 165.283 92.2918 165.237 92.2841C165.215 92.2804 165.191 92.2813 165.169 92.2866C165.147 92.2919 165.126 92.3017 165.107 92.3152C165.088 92.3288 165.073 92.3459 165.061 92.3655C165.049 92.3852 165.041 92.4071 165.037 92.4299C165.018 92.5332 164.961 92.6259 164.878 92.6901C164.684 92.5931 164.469 92.5428 164.251 92.5435C164.034 92.5441 163.819 92.5955 163.625 92.6936C163.431 92.7918 163.262 92.9339 163.132 93.1087C163.003 93.2836 162.916 93.4862 162.878 93.7006C162.841 93.915 162.854 94.1351 162.917 94.3435C162.98 94.5519 163.09 94.7428 163.24 94.9009C163.389 95.0591 163.573 95.1801 163.778 95.2544C163.983 95.3287 164.202 95.3542 164.418 95.3289L164.428 95.3471Z" fill="#1C2036"/>
<path d="M167.507 128.546C167.452 128.501 162.081 123.934 168.839 114.318L169.053 114.469C162.432 123.89 167.619 128.301 167.671 128.345L167.507 128.546Z" fill="#59D995"/>
<path d="M173.258 78.7412C178.073 78.7412 181.976 74.8381 181.976 70.0233C181.976 65.2085 178.073 61.3053 173.258 61.3053C168.443 61.3053 164.54 65.2085 164.54 70.0233C164.54 74.8381 168.443 78.7412 173.258 78.7412Z" fill="#1C2036"/>
<path d="M174.299 78.8712C172.549 78.8712 170.838 78.3523 169.383 77.3801C167.928 76.4078 166.794 75.0259 166.124 73.4092C165.455 71.7924 165.279 70.0133 165.621 68.297C165.962 66.5806 166.805 65.004 168.042 63.7666C169.28 62.5292 170.856 61.6865 172.573 61.3451C174.289 61.0037 176.068 61.1789 177.685 61.8486C179.302 62.5183 180.684 63.6523 181.656 65.1074C182.628 66.5625 183.147 68.2732 183.147 70.0231C183.147 72.3698 182.215 74.6204 180.555 76.2797C178.896 77.939 176.646 78.8712 174.299 78.8712ZM174.299 61.4353C172.6 61.4353 170.94 61.939 169.528 62.8826C168.115 63.8263 167.015 65.1675 166.365 66.7367C165.715 68.3059 165.545 70.0327 165.876 71.6986C166.207 73.3644 167.025 74.8946 168.226 76.0957C169.427 77.2967 170.958 78.1146 172.624 78.446C174.289 78.7774 176.016 78.6073 177.585 77.9573C179.155 77.3073 180.496 76.2066 181.439 74.7943C182.383 73.382 182.887 71.7217 182.887 70.0231C182.887 67.7455 181.982 65.5612 180.371 63.9506C178.761 62.3401 176.577 61.4353 174.299 61.4353Z" fill="#1C2036"/>
<path d="M158.659 145.916L171.749 118.904C173.18 116.666 169.464 114.134 167.179 113.821L151.185 110.196C148.9 109.886 146.852 111.633 145.93 113.938C145.93 113.938 141.119 122.688 141.488 125.844C141.587 126.674 143.05 129.313 143.05 129.313L140.707 143.73L158.659 145.916Z" fill="#BFF0D4"/>
<path d="M143.289 129.573C137.808 123.309 147.617 112.848 147.713 112.741L147.903 112.921C147.804 113.025 138.157 123.317 143.479 129.402L143.289 129.573Z" fill="#59D995"/>
<path d="M132.349 102.943C132.349 102.943 120.958 83.1653 124.042 82.2128C127.126 81.2603 127.253 79.3502 138.974 99.3L132.349 102.943Z" fill="#B46E5B"/>
<path d="M126.496 90.8032C126.496 90.8032 114.351 65.0396 117.697 61.1777C117.697 61.1777 117.398 58.9527 119.469 61.6852C121.442 64.2876 129.421 75.4101 134.464 91.839L126.496 90.8032Z" fill="#B46E5B"/>
<path d="M58.8988 115.187C58.8988 115.187 47.5525 138.567 45.0698 136.722C42.5871 134.877 41.8376 130.752 50.6597 110.42L58.8988 115.187Z" fill="#E3AB84"/>
<path d="M158.659 145.916L171.749 118.904C173.18 116.666 169.464 114.134 167.179 113.821L151.185 110.196C148.9 109.886 146.852 111.633 145.93 113.938C145.93 113.938 141.452 121.936 141.662 125.105C141.793 127.057 143.05 129.313 143.05 129.313L140.707 143.73L158.659 145.916Z" fill="#FF5736"/>
<path d="M173.875 229.2C174.697 235.748 174.093 234.449 181.554 237.398C189.016 240.346 183.738 240.521 182.942 240.349C180.415 239.789 178.086 238.093 172.706 238.787C167.327 239.482 170.598 233.697 170.598 233.697L170.799 227.683L173.875 229.2Z" fill="#B46E5B"/>
<path d="M181.56 237.398C189.021 240.349 183.743 240.521 182.947 240.349C180.42 239.79 178.091 238.093 172.712 238.788C167.333 239.482 170.604 233.697 170.604 233.697C170.604 233.697 174.814 236.315 177.026 235.665L181.56 237.398Z" fill="#FF5736"/>
<path d="M144.801 229.2C143.979 235.748 144.58 234.449 137.121 237.398C129.663 240.346 134.938 240.521 135.732 240.349C138.261 239.789 140.59 238.093 145.969 238.787C151.348 239.482 148.077 233.697 148.077 233.697L147.877 227.683L144.801 229.2Z" fill="#B46E5B"/>
<path d="M137.121 237.398C129.66 240.349 134.938 240.521 135.732 240.349C138.261 239.79 140.59 238.093 145.969 238.788C151.349 239.482 148.077 233.697 148.077 233.697C148.077 233.697 143.864 236.315 141.652 235.665L137.121 237.398Z" fill="#FF5736"/>
<path d="M148.595 144.691L153.592 164.62L148.908 231.501L142.662 231.761C142.662 231.761 133.697 182.623 135.43 159.366C135.815 154.21 140.715 143.73 140.715 143.73L148.595 144.691Z" fill="#2E3C5A"/>
<path d="M148.595 144.691V164.469L170.369 230.91H174.793C174.793 230.91 170.182 180.684 165.513 159.678C164.498 155.103 158.669 145.919 158.669 145.919L148.595 144.691Z" fill="#474973"/>
<path fill-rule="evenodd" clip-rule="evenodd" d="M152.603 110.852L153.993 100.63C154.391 97.6917 156.551 95.5369 158.789 95.8414C161.027 96.1459 162.534 98.7977 162.133 101.736L160.22 112.223C160.22 112.223 151.408 115.984 152.603 110.852Z" fill="#B46E5B"/>
<path fill-rule="evenodd" clip-rule="evenodd" d="M158.789 95.8466C156.551 95.5421 154.391 97.6968 153.993 100.635L152.842 109.087C153.669 109.746 154.658 110.171 155.705 110.318C157.62 110.579 159.189 110.165 160.91 108.497L162.133 101.731C162.534 98.7977 161.027 96.1458 158.789 95.8466Z" fill="#A34F49"/>
<path fill-rule="evenodd" clip-rule="evenodd" d="M149.241 87.7611C149.157 87.7481 149.074 87.7377 148.98 87.7325C148.203 87.667 147.427 87.868 146.779 88.3024C146.131 88.7367 145.651 89.3786 145.416 90.1224C145.182 90.8662 145.207 91.6677 145.489 92.3951C145.77 93.1225 146.291 93.7325 146.965 94.1247C147.639 94.5169 148.426 94.668 149.198 94.5532C149.969 94.4384 150.679 94.0645 151.209 93.493C151.74 92.9215 152.061 92.1863 152.118 91.4085C152.175 90.6307 151.967 89.8565 151.526 89.2132C151.32 90.2099 150.807 91.3654 149.532 91.1155L150.136 89.2314C150.383 88.4637 149.774 87.899 149.241 87.7611Z" fill="#A34F49"/>
<path fill-rule="evenodd" clip-rule="evenodd" d="M171.72 94.4752C171.798 94.5116 171.876 94.548 171.949 94.5897C172.633 94.9613 173.17 95.5546 173.473 96.2721C173.775 96.9895 173.824 97.7885 173.612 98.5376C173.4 99.2867 172.939 99.9414 172.306 100.394C171.673 100.847 170.904 101.07 170.127 101.029C169.349 100.987 168.609 100.681 168.028 100.163C167.447 99.6449 167.06 98.9444 166.93 98.1769C166.8 97.4093 166.935 96.6203 167.312 95.9395C167.69 95.2588 168.288 94.7268 169.008 94.4309C168.634 95.3782 168.431 96.6247 169.633 97.114L170.153 95.209C170.369 94.4361 171.202 94.2982 171.72 94.4752Z" fill="#A34F49"/>
<path fill-rule="evenodd" clip-rule="evenodd" d="M155.45 107.63C159.546 109.124 166.323 103.115 170.819 97.5486L173.248 89.6243C174.15 86.6458 173.837 83.4313 172.377 80.6828C170.917 77.9342 168.429 75.875 165.456 74.9547C162.477 74.0518 159.263 74.3644 156.514 75.8243C153.765 77.2843 151.706 79.7728 150.786 82.7463L148.41 90.5013C149.123 97.2363 150.802 105.936 155.45 107.63Z" fill="#B46E5B"/>
<path fill-rule="evenodd" clip-rule="evenodd" d="M151.593 93.9782C152.444 93.8507 153.337 94.5897 153.589 95.6359C153.842 96.682 153.352 97.6293 152.501 97.7594C151.65 97.8895 150.758 97.1479 150.505 96.1043C150.253 95.0608 150.742 94.1083 151.593 93.9782Z" fill="#A34F49"/>
<path fill-rule="evenodd" clip-rule="evenodd" d="M164.498 98.0768C165.672 97.9206 166.684 98.6129 166.76 99.6382C166.835 100.664 165.945 101.598 164.772 101.754C163.598 101.91 162.583 101.215 162.51 100.193C162.437 99.1698 163.325 98.2329 164.498 98.0768Z" fill="#A34F49"/>
<path fill-rule="evenodd" clip-rule="evenodd" d="M164.662 89.4682C164.598 89.4764 164.536 89.4971 164.48 89.5292C164.424 89.5613 164.375 89.6042 164.336 89.6553C164.256 89.7585 164.22 89.8892 164.237 90.0186C164.253 90.148 164.321 90.2655 164.424 90.3453C164.527 90.4251 164.658 90.4606 164.787 90.4441C164.787 90.4441 166.416 90.2073 167.509 91.485C167.595 91.5844 167.717 91.6457 167.847 91.6555C167.978 91.6653 168.107 91.6227 168.207 91.5371C168.306 91.4515 168.368 91.3299 168.377 91.1991C168.387 91.0683 168.344 90.939 168.259 90.8396C166.815 89.1559 164.668 89.4682 164.662 89.4682Z" fill="#1C2036"/>
<path fill-rule="evenodd" clip-rule="evenodd" d="M153.493 86.2777C153.365 86.3049 153.254 86.3818 153.183 86.4914C153.112 86.6009 153.087 86.7342 153.114 86.8619C153.142 86.9896 153.219 87.1012 153.328 87.1722C153.438 87.2432 153.571 87.2678 153.699 87.2405C154.194 87.1445 154.706 87.1668 155.192 87.3057C155.677 87.4445 156.123 87.6959 156.494 88.0395C156.54 88.0851 156.595 88.1212 156.655 88.1456C156.715 88.17 156.78 88.1823 156.845 88.1819C156.91 88.1814 156.974 88.1681 157.034 88.1428C157.094 88.1174 157.148 88.0806 157.194 88.0343C157.239 87.988 157.275 87.9331 157.3 87.8729C157.324 87.8126 157.336 87.7482 157.336 87.6832C157.335 87.6182 157.322 87.5539 157.297 87.494C157.272 87.4342 157.235 87.3799 157.188 87.3342C155.611 85.791 153.498 86.2751 153.493 86.2777Z" fill="#1C2036"/>
<path d="M159.065 97.5565C158.654 97.5451 158.253 97.4296 157.899 97.2208C157.737 97.1167 157.664 97.0126 157.678 96.9007L157.938 96.9293V96.9111C158.081 97.0409 158.256 97.1306 158.445 97.1713C158.838 97.3014 159.226 97.3222 159.377 97.2234C159.528 97.1245 159.637 96.5259 159.556 95.5318L159.817 95.511C159.869 96.1356 159.895 97.2208 159.515 97.4472C159.377 97.5239 159.222 97.5617 159.065 97.5565Z" fill="#A34F49"/>
<path fill-rule="evenodd" clip-rule="evenodd" d="M174.151 93.2078L173.032 95.5083C173.032 95.5083 171.527 95.2481 171.127 96.5493C171.127 96.5493 170.518 94.8942 171.241 93.2833C171.241 93.2833 169.461 89.208 170.692 85.6401C171.37 83.5999 172.311 81.6568 173.492 79.8602C173.492 79.8602 177.323 85.6974 174.151 93.2078Z" fill="#1C2036"/>
<path fill-rule="evenodd" clip-rule="evenodd" d="M148.031 85.2081L147.671 87.7428C147.671 87.7428 149.066 88.3674 148.665 89.6686C148.665 89.6686 150.099 88.6276 150.404 86.8971C150.404 86.8971 154.159 84.5185 155.135 80.8752C156.111 77.2318 155.231 75.1733 155.231 75.1733C155.231 75.1733 149.61 77.211 148.031 85.2081Z" fill="#1C2036"/>
<path fill-rule="evenodd" clip-rule="evenodd" d="M154.82 98.7484C154.422 100.05 155.796 101.845 157.1 102.243C158.404 102.642 160.722 101.793 161.123 100.489C161.196 100.25 160.119 100.112 159.879 100.039L156.03 98.8603C155.796 98.7874 154.893 98.5089 154.82 98.7484Z" fill="white"/>
<path fill-rule="evenodd" clip-rule="evenodd" d="M173.703 81.3983C173.703 81.3983 171.132 60.2201 152.749 73.828C148.889 76.6906 144.843 79.6677 144.902 81.6143C145.126 88.9374 170.283 90.2568 173.703 81.3983Z" fill="#1C2036"/>
<path opacity="0.3" fill-rule="evenodd" clip-rule="evenodd" d="M173.492 79.8602C173.492 79.8602 161.781 89.1533 147.094 78.533L150.643 75.3398C150.643 75.3398 157.67 84.9218 173.518 79.7223L173.492 79.8602Z" fill="white"/>
<path d="M172.743 95.5629L172.584 95.3574C172.62 95.3287 176.269 92.4453 176.654 88.1045C176.894 85.3928 175.832 82.6838 173.495 80.0528C172.553 81.0365 165.014 88.6042 156.759 88.6068C156.499 88.6068 156.257 88.6068 156.004 88.5834C151.715 88.3387 147.937 86.02 144.798 81.6897L145.009 81.5361C148.109 85.8014 151.812 88.0837 156.02 88.3257C164.98 88.8306 173.318 79.8628 173.401 79.7717L173.5 79.6676L173.594 79.7743C176.048 82.4938 177.164 85.307 176.912 88.1305C176.516 92.5858 172.782 95.5343 172.743 95.5629Z" fill="#1C2036"/>
<path d="M171.939 100.579L171.013 110.858L171.272 110.882L172.199 100.602L171.939 100.579Z" fill="#F3E9D5"/>
<path fill-rule="evenodd" clip-rule="evenodd" d="M155.471 92.7446C155.287 92.7233 155.11 92.666 154.949 92.5758C154.788 92.4857 154.646 92.3645 154.532 92.2193C154.418 92.0741 154.334 91.9078 154.285 91.73C154.236 91.5521 154.222 91.3663 154.245 91.1832C154.257 91.0803 154.281 90.9791 154.315 90.8813L154.162 90.8058C153.986 90.7186 153.832 90.5943 153.709 90.4415C153.688 90.4063 153.68 90.3648 153.687 90.3245C153.694 90.2841 153.714 90.2474 153.745 90.2207C153.776 90.1941 153.816 90.1791 153.857 90.1786C153.897 90.178 153.937 90.1919 153.969 90.2177C154.088 90.3629 154.242 90.4749 154.417 90.543C154.246 90.4142 154.115 90.2402 154.039 90.0407C154.03 90.0192 154.025 89.9959 154.025 89.9725C154.025 89.949 154.03 89.9258 154.039 89.9041C154.048 89.8825 154.061 89.863 154.078 89.8467C154.095 89.8303 154.115 89.8176 154.137 89.8092C154.159 89.8008 154.182 89.7969 154.206 89.7977C154.229 89.7985 154.252 89.8041 154.273 89.8141C154.295 89.824 154.314 89.8382 154.329 89.8556C154.345 89.8731 154.357 89.8936 154.365 89.9158C154.428 90.0764 154.54 90.2129 154.685 90.3062L154.7 90.2931C154.59 90.1812 154.517 90.0374 154.492 89.882C154.488 89.8592 154.489 89.836 154.495 89.8137C154.5 89.7913 154.51 89.7702 154.523 89.7516C154.537 89.733 154.554 89.7172 154.574 89.7052C154.593 89.6932 154.615 89.6852 154.638 89.6816C154.661 89.678 154.684 89.6789 154.706 89.6843C154.728 89.6897 154.75 89.6994 154.768 89.713C154.787 89.7265 154.803 89.7436 154.815 89.7632C154.827 89.7828 154.835 89.8046 154.838 89.8273C154.856 89.9311 154.913 90.0242 154.997 90.0876C155.192 89.9905 155.406 89.9403 155.624 89.9409C155.842 89.9415 156.056 89.9929 156.25 90.0911C156.445 90.1892 156.613 90.3314 156.743 90.5062C156.872 90.681 156.959 90.8837 156.997 91.0981C157.034 91.3125 157.021 91.5326 156.958 91.741C156.896 91.9494 156.785 92.1402 156.636 92.2984C156.486 92.4565 156.302 92.5776 156.097 92.6519C155.893 92.7262 155.674 92.7517 155.458 92.7264L155.471 92.7446Z" fill="#1C2036"/>
<path fill-rule="evenodd" clip-rule="evenodd" d="M164.428 95.3471C164.611 95.3256 164.788 95.268 164.949 95.1777C165.11 95.0874 165.251 94.9662 165.365 94.821C165.478 94.6759 165.562 94.5097 165.611 94.332C165.661 94.1543 165.674 93.9686 165.651 93.7857C165.64 93.683 165.617 93.5818 165.584 93.4838L165.735 93.4084C165.91 93.3211 166.065 93.1968 166.187 93.044C166.217 93.0084 166.23 92.9627 166.226 92.9169C166.222 92.8711 166.199 92.8288 166.164 92.7994C166.146 92.7827 166.125 92.7699 166.102 92.7618C166.078 92.7537 166.054 92.7506 166.029 92.7525C166.005 92.7545 165.981 92.7615 165.959 92.7732C165.938 92.7848 165.919 92.8008 165.904 92.8202C165.786 92.9665 165.632 93.0788 165.456 93.1455C165.626 93.0167 165.757 92.8427 165.833 92.6433C165.842 92.6219 165.847 92.5991 165.846 92.576C165.846 92.553 165.841 92.5302 165.832 92.5091C165.823 92.4879 165.809 92.4689 165.793 92.453C165.776 92.4372 165.756 92.4249 165.735 92.4169C165.713 92.4085 165.69 92.4045 165.667 92.4051C165.644 92.4057 165.621 92.4108 165.6 92.4203C165.579 92.4297 165.56 92.4433 165.544 92.4601C165.528 92.4769 165.516 92.4967 165.508 92.5183C165.446 92.6794 165.334 92.8163 165.188 92.9087L165.172 92.8957C165.284 92.7839 165.357 92.6402 165.383 92.4845C165.39 92.4387 165.379 92.392 165.351 92.3546C165.324 92.3171 165.283 92.2918 165.237 92.2841C165.215 92.2804 165.191 92.2813 165.169 92.2866C165.147 92.2919 165.126 92.3017 165.107 92.3152C165.088 92.3288 165.073 92.3459 165.061 92.3655C165.049 92.3852 165.041 92.4071 165.037 92.4299C165.018 92.5332 164.961 92.6259 164.878 92.6901C164.684 92.5931 164.469 92.5428 164.251 92.5435C164.034 92.5441 163.819 92.5955 163.625 92.6936C163.431 92.7918 163.262 92.9339 163.132 93.1087C163.003 93.2836 162.916 93.4862 162.878 93.7006C162.841 93.915 162.854 94.1351 162.917 94.3435C162.98 94.5519 163.09 94.7428 163.24 94.9009C163.389 95.0591 163.573 95.1801 163.778 95.2544C163.983 95.3287 164.202 95.3542 164.418 95.3289L164.428 95.3471Z" fill="#1C2036"/>
<path d="M173.258 78.7412C178.073 78.7412 181.976 74.8381 181.976 70.0233C181.976 65.2085 178.073 61.3053 173.258 61.3053C168.443 61.3053 164.54 65.2085 164.54 70.0233C164.54 74.8381 168.443 78.7412 173.258 78.7412Z" fill="#1C2036"/>
<path d="M174.299 78.8712C172.549 78.8712 170.838 78.3523 169.383 77.3801C167.928 76.4078 166.794 75.0259 166.124 73.4092C165.455 71.7924 165.279 70.0133 165.621 68.297C165.962 66.5806 166.805 65.004 168.042 63.7666C169.28 62.5292 170.856 61.6865 172.573 61.3451C174.289 61.0037 176.068 61.1789 177.685 61.8486C179.302 62.5183 180.684 63.6523 181.656 65.1074C182.628 66.5625 183.147 68.2732 183.147 70.0231C183.147 72.3698 182.215 74.6204 180.555 76.2797C178.896 77.939 176.646 78.8712 174.299 78.8712ZM174.299 61.4353C172.6 61.4353 170.94 61.939 169.528 62.8826C168.115 63.8263 167.015 65.1675 166.365 66.7367C165.715 68.3059 165.545 70.0327 165.876 71.6986C166.207 73.3644 167.025 74.8946 168.226 76.0957C169.427 77.2967 170.958 78.1146 172.624 78.446C174.289 78.7774 176.016 78.6073 177.585 77.9573C179.155 77.3073 180.496 76.2066 181.439 74.7943C182.383 73.382 182.887 71.7217 182.887 70.0231C182.887 67.7455 181.982 65.5612 180.371 63.9506C178.761 62.3401 176.577 61.4353 174.299 61.4353Z" fill="#1C2036"/>
<path d="M143.289 129.573C137.808 123.309 147.617 112.848 147.713 112.741L147.903 112.921C147.804 113.025 138.157 123.317 143.479 129.402L143.289 129.573Z" fill="#59D995"/>
<path d="M126.496 90.8032C126.496 90.8032 114.351 65.0396 117.697 61.1777C117.697 61.1777 117.398 58.9527 119.469 61.6852C121.442 64.2876 129.421 75.4101 134.464 91.839L126.496 90.8032Z" fill="#B46E5B"/>
<path fill-rule="evenodd" clip-rule="evenodd" d="M55.7658 99.5967C55.7658 99.5967 53.5407 101.002 52.9032 101.902C52.2656 102.803 46.4961 118.763 46.4961 118.763L56.7937 126.188L61.3557 115.549C61.3557 115.549 61.6576 105.254 55.7658 99.5967Z" fill="white"/>
<path d="M59.9816 130.435C57.3792 128.179 56.5985 124.384 56.5777 124.348L56.8379 124.296C56.8379 124.332 57.6186 128.041 60.1585 130.237L59.9816 130.435ZM84.7042 129.914L84.5454 129.711C85.8128 128.717 86.1485 125.334 86.1537 125.3L86.414 125.324C86.3905 125.47 86.0522 128.855 84.6964 129.917L84.7042 129.914ZM55.9687 116.382L55.7241 116.294C55.7553 116.21 58.7611 107.877 55.1412 102.111L55.3624 101.973C59.0421 107.841 55.9921 116.291 55.9609 116.374L55.9687 116.382ZM51.9038 115.057H51.6436L51.8752 105.772H52.1354L51.9038 115.057ZM87.0828 114.178L86.8225 114.152C86.8225 114.063 87.7021 105.304 84.7406 99.4015L84.9722 99.2844C87.9624 105.246 87.0932 114.082 87.075 114.17L87.0828 114.178ZM90.5101 110.074L89.313 100.185L89.5732 100.154L90.7703 110.043L90.5101 110.074Z" fill="#D6E7FF"/>
<path d="M177.247 139.944L184.466 135.312L171.332 116.476C169.825 114.1 167.069 114.891 164.93 116.72C162.791 118.542 162.609 124.049 164.72 125.907L177.247 139.944Z" fill="#FF5736"/>
<path d="M171.059 153.734L165.836 152.469L163.041 155.881L170.427 156.742C171.395 156.948 173.427 155.405 173.029 154.66C172.735 154.14 171.059 153.734 171.059 153.734Z" fill="#A34F49"/>
<path d="M161.685 151.137L163.041 155.881L168.368 156.503L165.505 146.354L164.204 146.713C163.284 146.966 162.501 147.574 162.029 148.403C161.557 149.233 161.433 150.216 161.685 151.137Z" fill="#B46E5B"/>
<path d="M166.69 150.994L182.853 140.678L178.283 132.99L162.346 147.525L166.69 150.994Z" fill="#89BBFE"/>
<path d="M178.205 138.622C178.461 139.284 178.908 139.856 179.489 140.265C180.07 140.673 180.759 140.9 181.469 140.917C182.179 140.934 182.878 140.74 183.478 140.36C184.078 139.979 184.551 139.43 184.839 138.78C185.126 138.131 185.215 137.411 185.093 136.711C184.971 136.011 184.645 135.363 184.155 134.849C183.665 134.335 183.033 133.978 182.34 133.823C181.647 133.667 180.924 133.721 180.261 133.977C179.373 134.321 178.657 135.003 178.272 135.874C177.886 136.745 177.862 137.733 178.205 138.622Z" fill="#89BBFE"/>
<path d="M114.002 10.2987L106.491 19.2327L111.384 56.5612L116.25 56.314L121.715 19.2327L114.002 10.2987Z" fill="#F0F0F0"/>
<path d="M113.638 13.9419V56.2306C113.647 56.3538 113.702 56.4691 113.792 56.5532C113.883 56.6374 114.002 56.6841 114.126 56.6841C114.249 56.6841 114.368 56.6374 114.459 56.5532C114.549 56.4691 114.604 56.3538 114.613 56.2306V13.9419C114.604 13.8186 114.549 13.7033 114.459 13.6192C114.368 13.5351 114.249 13.4883 114.126 13.4883C114.002 13.4883 113.883 13.5351 113.792 13.6192C113.702 13.7033 113.647 13.8186 113.638 13.9419Z" fill="#E3AB84"/>
<path d="M116.04 57.9221C116.04 56.8197 115.146 55.926 114.045 55.926C112.943 55.926 112.05 56.8197 112.05 57.9221V65.3805C112.05 66.4828 112.943 67.3765 114.045 67.3765C115.146 67.3765 116.04 66.4828 116.04 65.3805V57.9221Z" fill="#FF5736"/>
<path d="M134.779 91.1442L126.668 94.3893L140.182 116.075C141.241 119.351 147.263 120.439 149.498 118.779L149.222 118.958C151.458 117.298 151.268 112.95 149.308 110.972L134.779 91.1442Z" fill="#FF5736"/>
<path d="M117.083 50.7213C117.083 50.7213 108.407 52.4571 110.489 57.3131C110.489 57.3131 112.571 59.0489 117.429 57.1414L117.083 50.7213Z" fill="#D6806B"/>
<path d="M45.299 167.092C62.8335 167.092 77.048 152.878 77.048 135.343C77.048 117.809 62.8335 103.594 45.299 103.594C27.7645 103.594 13.5499 117.809 13.5499 135.343C13.5499 152.878 27.7645 167.092 45.299 167.092Z" fill="#E3AB84"/>
<path d="M45.2989 165.59C39.3153 165.59 33.4661 163.816 28.4909 160.492C23.5158 157.167 19.6382 152.442 17.3486 146.914C15.059 141.386 14.4602 135.302 15.628 129.434C16.7957 123.565 19.6775 118.175 23.9089 113.944C28.1404 109.713 33.5314 106.832 39.4001 105.666C45.2689 104.499 51.3519 105.099 56.8797 107.389C62.4076 109.68 67.1321 113.558 70.4557 118.534C73.7792 123.51 75.5526 129.359 75.5516 135.343C75.5413 143.363 72.3505 151.051 66.6791 156.722C61.0077 162.392 53.3188 165.581 45.2989 165.59ZM45.2989 106.386C39.5731 106.386 33.9758 108.084 29.2149 111.265C24.454 114.446 20.7432 118.967 18.5518 124.257C16.3603 129.547 15.7867 135.368 16.9034 140.984C18.0201 146.6 20.7769 151.759 24.8253 155.808C28.8737 159.857 34.0319 162.615 39.6476 163.732C45.2633 164.85 51.0843 164.277 56.3746 162.087C61.6649 159.896 66.1868 156.186 69.3687 151.426C72.5505 146.666 74.2494 141.069 74.2504 135.343C74.2422 127.667 71.1893 120.308 65.7616 114.88C60.3339 109.453 52.9748 106.4 45.2989 106.391V106.386Z" fill="#FF5736"/>
<path d="M45.299 147.184C51.8385 147.184 57.1398 141.883 57.1398 135.343C57.1398 128.804 51.8385 123.502 45.299 123.502C38.7595 123.502 33.4581 128.804 33.4581 135.343C33.4581 141.883 38.7595 147.184 45.299 147.184Z" fill="#FF5736"/>
<path d="M166.049 182.186C183.584 182.186 197.798 167.971 197.798 150.437C197.798 132.902 183.584 118.688 166.049 118.688C148.515 118.688 134.3 132.902 134.3 150.437C134.3 167.971 148.515 182.186 166.049 182.186Z" fill="#E3AB84"/>
<path d="M166.049 180.684C160.066 180.684 154.216 178.91 149.241 175.585C144.266 172.261 140.389 167.536 138.099 162.008C135.809 156.479 135.211 150.396 136.378 144.528C137.546 138.659 140.428 133.269 144.659 129.038C148.891 124.807 154.282 121.926 160.151 120.76C166.019 119.593 172.102 120.193 177.63 122.483C183.158 124.774 187.882 128.652 191.206 133.628C194.53 138.604 196.303 144.453 196.302 150.437C196.292 158.457 193.101 166.145 187.429 171.815C181.758 177.486 174.069 180.675 166.049 180.684ZM166.049 121.48C160.323 121.48 154.726 123.178 149.965 126.359C145.204 129.54 141.494 134.061 139.302 139.351C137.111 144.641 136.537 150.462 137.654 156.078C138.77 161.694 141.527 166.852 145.576 170.902C149.624 174.951 154.782 177.709 160.398 178.826C166.014 179.944 171.835 179.371 177.125 177.181C182.415 174.99 186.937 171.28 190.119 166.52C193.301 161.76 195 156.163 195.001 150.437C194.993 142.761 191.94 135.402 186.512 129.974C181.084 124.547 173.725 121.494 166.049 121.485V121.48Z" fill="#FF5736"/>
<path d="M166.049 162.277C172.589 162.277 177.89 156.976 177.89 150.437C177.89 143.897 172.589 138.596 166.049 138.596C159.51 138.596 154.209 143.897 154.209 150.437C154.209 156.976 159.51 162.277 166.049 162.277Z" fill="#FF5736"/>
<circle cx="231.154" cy="91.5" r="20.5" fill="#BC88E4"/>
<path d="M233.781 94.347H235.734V95.265C235.734 95.361 235.704 95.442 235.644 95.508C235.59 95.574 235.503 95.607 235.383 95.607H233.781V99H232.368V95.607H226.653C226.533 95.607 226.428 95.574 226.338 95.508C226.254 95.436 226.2 95.349 226.176 95.247L226.014 94.428L232.287 86.103H233.781V94.347ZM232.368 89.028C232.368 88.872 232.371 88.704 232.377 88.524C232.389 88.344 232.41 88.158 232.44 87.966L227.751 94.347H232.368V89.028Z" fill="white"/>
</svg>
