<svg width="200" height="41" viewBox="0 0 200 41" fill="none" xmlns="http://www.w3.org/2000/svg">
<g clip-path="url(#clip0)">
<path d="M23.1382 11.2642C23.1057 11.9088 22.8723 12.5271 22.4706 13.0323C22.0689 13.5375 21.5191 13.9042 20.8983 14.0811C20.2776 14.258 19.6171 14.2361 19.0094 14.0185C18.4018 13.8009 17.8775 13.3986 17.5101 12.8679V25.0645C17.1129 24.5578 16.5676 24.1877 15.9501 24.0056C15.3326 23.8234 14.6737 23.8385 14.0652 24.0486C13.4566 24.2586 12.9288 24.6533 12.5552 25.1776C12.1815 25.7018 11.9807 26.3296 11.9807 26.9733C11.9807 27.6171 12.1815 28.2449 12.5552 28.7691C12.9288 29.2934 13.4566 29.688 14.0652 29.8981C14.6737 30.1082 15.3326 30.1232 15.9501 29.9411C16.5676 29.759 17.1129 29.3889 17.5101 28.8822V40.0485H13.2523C12.8368 40.0485 12.4348 39.9011 12.1179 39.6324C11.801 39.3638 11.5897 38.9913 11.5218 38.5814L10.7649 34.0402C10.7601 34.0111 10.7495 33.9832 10.7337 33.9583C10.718 33.9334 10.6973 33.9119 10.6731 33.8951C10.6488 33.8783 10.6214 33.8665 10.5925 33.8605C10.5636 33.8545 10.5338 33.8544 10.5049 33.8602L6.27707 34.6771C5.97232 34.7342 5.65896 34.7264 5.3574 34.6544C5.05584 34.5823 4.77285 34.4475 4.52686 34.2588C4.28087 34.07 4.07741 33.8316 3.92972 33.559C3.78203 33.2863 3.69344 32.9857 3.6697 32.6765L3.33628 27.4385L0.905634 27.4018C0.769885 27.4052 0.63518 27.3772 0.51198 27.3201C0.388781 27.263 0.280401 27.1783 0.195258 27.0725C0.110116 26.9667 0.0505003 26.8427 0.0210418 26.7102C-0.00841661 26.5776 -0.00692543 26.4401 0.0253996 26.3082L1.85922 18.6395C2.09056 17.6873 2.1246 16.6978 1.95925 15.732C1.62026 13.79 1.7132 11.7971 2.23145 9.895C2.7497 7.99292 3.68054 6.22834 4.95783 4.72667C6.23511 3.22499 7.82748 2.02308 9.62176 1.20636C11.416 0.389643 13.3682 -0.0218398 15.3395 0.00115764H17.5134V9.33698C17.896 8.78421 18.4484 8.37127 19.0869 8.16074C19.7254 7.95022 20.415 7.9536 21.0514 8.17037C21.6878 8.38714 22.2361 8.80548 22.6133 9.36198C22.9905 9.91847 23.1759 10.5828 23.1416 11.2542L23.1382 11.2642Z" fill="#FF5151"/>
<path d="M34.1468 27.3939L31.7129 27.4306L31.3628 32.6753C31.3398 32.9861 31.2512 33.2884 31.1029 33.5623C30.9545 33.8363 30.7498 34.0757 30.5021 34.2647C30.2545 34.4538 29.9696 34.5882 29.6662 34.659C29.3628 34.7299 29.0478 34.7356 28.7421 34.6759L24.5109 33.849C24.482 33.8432 24.4522 33.8434 24.4233 33.8494C24.3944 33.8553 24.367 33.8671 24.3427 33.8839C24.3185 33.9007 24.2978 33.9222 24.2821 33.9471C24.2663 33.9721 24.2557 33.9999 24.2509 34.029L23.494 38.5703C23.4268 38.9799 23.2162 39.3523 22.8999 39.621C22.5835 39.8897 22.182 40.0373 21.7669 40.0373H17.5091V28.881C17.1119 29.3877 16.5666 29.7578 15.9491 29.94C15.3316 30.1221 14.6727 30.107 14.0642 29.8969C13.4557 29.6869 12.9278 29.2922 12.5542 28.7679C12.1805 28.2437 11.9797 27.6159 11.9797 26.9722C11.9797 26.3284 12.1805 25.7006 12.5542 25.1764C12.9278 24.6521 13.4557 24.2575 14.0642 24.0474C14.6727 23.8373 15.3316 23.8223 15.9491 24.0044C16.5666 24.1865 17.1119 24.5566 17.5091 25.0633V12.8667C17.8842 13.4081 18.4225 13.8154 19.0453 14.0294C19.6682 14.2434 20.3432 14.2528 20.9718 14.0563C21.6004 13.8598 22.1498 13.4676 22.5399 12.9369C22.93 12.4063 23.1404 11.7649 23.1404 11.1063C23.1404 10.4477 22.93 9.80626 22.5399 9.2756C22.1498 8.74494 21.6004 8.35276 20.9718 8.15624C20.3432 7.95972 19.6682 7.96914 19.0453 8.18312C18.4225 8.3971 17.8842 8.80446 17.5091 9.34579V-3.02246e-05H19.673C21.6448 -0.0263073 23.5981 0.382713 25.3937 1.19787C27.1893 2.01304 28.783 3.21427 30.0611 4.71594C31.3393 6.21761 32.2704 7.98275 32.7882 9.88554C33.3059 11.7883 33.3976 13.7819 33.0566 15.7242C32.8912 16.69 32.9253 17.6794 33.1566 18.6316L34.9904 26.3003C35.022 26.4292 35.0241 26.5635 34.9967 26.6933C34.9692 26.8231 34.9129 26.9451 34.8318 27.0501C34.7508 27.1552 34.6471 27.2407 34.5286 27.3002C34.41 27.3597 34.2795 27.3917 34.1468 27.3939Z" fill="#7811C9"/>
<path d="M47.6972 10.4161C47.3709 10.4177 47.0477 10.3523 46.7477 10.2238C46.4477 10.0954 46.1774 9.90657 45.9534 9.66921C45.7172 9.44405 45.5296 9.17284 45.4023 8.87234C45.275 8.57184 45.2106 8.24842 45.2132 7.92207C45.2117 7.59391 45.2765 7.26883 45.4037 6.96632C45.5309 6.66381 45.7179 6.3901 45.9534 6.1616C46.176 5.92207 46.446 5.7314 46.7462 5.60169C47.0463 5.47197 47.3702 5.40604 47.6972 5.40807C48.0295 5.40344 48.3591 5.46805 48.6651 5.59778C48.971 5.72751 49.2466 5.91953 49.4743 6.1616C49.7099 6.3901 49.8968 6.66381 50.024 6.96632C50.1512 7.26883 50.216 7.59391 50.2145 7.92207C50.2171 8.24842 50.1528 8.57184 50.0255 8.87234C49.8982 9.17284 49.7106 9.44405 49.4743 9.66921C49.2452 9.90894 48.9692 10.099 48.6634 10.2275C48.3577 10.3559 48.0288 10.4201 47.6972 10.4161ZM45.6967 28.0274V12.3032H49.7511V28.0274H45.6967Z" fill="white"/>
<path d="M62.1942 11.8632C62.9863 11.8393 63.7747 11.9808 64.5089 12.2787C65.2432 12.5767 65.9073 13.0245 66.4587 13.5937C67.5701 14.7473 68.1258 16.3411 68.1258 18.3749V28.0442H64.0814V18.8784C64.0814 17.8281 63.8013 17.0279 63.2345 16.4711C62.932 16.1879 62.5758 15.9683 62.1869 15.8251C61.7981 15.6819 61.3845 15.6182 60.9706 15.6375C60.506 15.6158 60.0421 15.6915 59.6086 15.8598C59.1751 16.028 58.7815 16.2851 58.4532 16.6145C57.822 17.2657 57.5074 18.2405 57.5097 19.5386V28.0275H53.4519V12.3033H57.5097V14.0671C58.4966 12.6001 60.0581 11.8654 62.1942 11.8632Z" fill="white"/>
<path d="M80.3558 11.8631C81.1473 11.8396 81.935 11.9814 82.6687 12.2793C83.4024 12.5773 84.0659 13.0249 84.6169 13.5936C85.7283 14.7472 86.284 16.341 86.284 18.3748V28.0441H82.2296V18.8783C82.2296 17.828 81.9462 17.0278 81.3794 16.471C81.0769 16.1878 80.7207 15.9682 80.3318 15.825C79.943 15.6818 79.5294 15.6181 79.1154 15.6374C78.6509 15.6157 78.187 15.6914 77.7535 15.8597C77.3199 16.0279 76.9264 16.285 76.5981 16.6144C75.9713 17.2812 75.6545 18.2381 75.6545 19.5385V28.0274H71.6001V12.3032H75.6545V14.067C76.6414 12.6 78.2085 11.8653 80.3558 11.8631Z" fill="white"/>
<path d="M93.1727 21.8325C93.715 23.8019 95.1932 24.7877 97.6072 24.7899C99.1631 24.7899 100.337 24.2654 101.128 23.2162L104.399 25.1034C102.843 27.3462 100.558 28.4676 97.5438 28.4676C94.9431 28.4676 92.857 27.6818 91.2855 26.1103C89.714 24.5388 88.9282 22.5571 88.9282 20.1654C88.8978 19.071 89.0888 17.9817 89.4899 16.963C89.891 15.9442 90.4938 15.0171 91.2621 14.2371C92.8181 12.6567 94.8098 11.8654 97.2371 11.8632C98.3038 11.8327 99.3648 12.0302 100.349 12.4425C101.334 12.8547 102.219 13.4722 102.945 14.2538C104.445 15.8509 105.252 17.9756 105.193 20.1654C105.189 20.7246 105.136 21.2824 105.036 21.8325H93.1727ZM93.1093 18.6883H101.128C100.97 17.7387 100.458 16.8845 99.6944 16.2977C98.9783 15.7762 98.1128 15.5002 97.2271 15.5108C96.2591 15.4724 95.3069 15.764 94.5263 16.3377C93.7916 16.9296 93.2897 17.7622 93.1093 18.6883Z" fill="white"/>
<path d="M112.071 15.0039C112.406 14.0496 113.071 13.2458 113.945 12.7366C114.831 12.2382 115.835 11.985 116.852 12.0031V16.5176C115.691 16.3539 114.51 16.6234 113.535 17.2745C112.561 17.9236 112.073 19.0028 112.071 20.512V28.0274H108.03V12.3032H112.084L112.071 15.0039Z" fill="white"/>
<path d="M136.917 12.3032H140.808L136.224 28.0274H132.25L129.275 18.5015L126.298 28.0274H122.324L117.699 12.3032H121.987L124.681 21.9725L127.545 12.3032H131.383L134.25 22.0058L136.917 12.3032Z" fill="white"/>
<path d="M156.193 26.0636C155.03 27.2356 153.545 28.035 151.927 28.3598C150.308 28.6846 148.63 28.5202 147.105 27.8876C145.58 27.2549 144.279 26.1826 143.366 24.8073C142.453 23.432 141.97 21.816 141.979 20.1653C141.907 19.0286 142.069 17.8891 142.454 16.8173C142.84 15.7455 143.441 14.7641 144.22 13.9336C145 13.1031 145.941 12.4412 146.986 11.9888C148.032 11.5363 149.159 11.3029 150.298 11.3029C151.437 11.3029 152.564 11.5363 153.609 11.9888C154.654 12.4412 155.596 13.1031 156.375 13.9336C157.155 14.7641 157.756 15.7455 158.141 16.8173C158.527 17.8891 158.689 19.0286 158.617 20.1653C158.638 21.2621 158.435 22.3517 158.018 23.3663C157.601 24.381 156.979 25.2991 156.193 26.0636ZM147.247 23.2795C147.641 23.6817 148.114 23.9982 148.636 24.2093C149.158 24.4205 149.718 24.5216 150.281 24.5065C150.846 24.5211 151.409 24.4198 151.933 24.2088C152.458 23.9978 152.934 23.6815 153.332 23.2795C153.738 22.8716 154.056 22.3849 154.267 21.8493C154.479 21.3138 154.578 20.7407 154.559 20.1653C154.577 19.5905 154.478 19.018 154.267 18.483C154.056 17.948 153.738 17.4619 153.332 17.0545C152.934 16.652 152.459 16.3354 151.934 16.1244C151.409 15.9133 150.846 15.8123 150.281 15.8275C149.718 15.8116 149.158 15.9124 148.636 16.1235C148.113 16.3347 147.641 16.6517 147.247 17.0545C146.846 17.4645 146.532 17.9515 146.325 18.4862C146.117 19.0209 146.02 19.5921 146.04 20.1653C146.02 20.7391 146.117 21.3109 146.324 21.8461C146.532 22.3814 146.846 22.869 147.247 23.2795Z" fill="white"/>
<path d="M165.535 15.004C165.868 14.0493 166.532 13.2451 167.406 12.7367C168.293 12.2387 169.296 11.9855 170.313 12.0032V16.5177C169.152 16.3543 167.971 16.6237 166.996 17.2746C166.022 17.9237 165.535 19.0028 165.535 20.5121V28.0275H161.478V12.3033H165.535V15.004Z" fill="white"/>
<path d="M187.171 28.0275H182.453L176.715 20.8856V28.0275H172.674V6.00159H176.715V19.2384L182.14 12.3033H186.981L180.663 20.072L187.171 28.0275Z" fill="white"/>
<path d="M191.889 16.7712C191.889 17.1913 192.166 17.5314 192.722 17.7914C193.374 18.088 194.053 18.3203 194.75 18.4849C195.561 18.6889 196.359 18.9405 197.14 19.2385C197.945 19.5482 198.648 20.0772 199.168 20.7656C199.742 21.5335 200.036 22.4747 200.001 23.4329C200.001 25.0489 199.399 26.2915 198.194 27.1606C196.989 28.0297 195.484 28.4643 193.679 28.4643C190.452 28.4643 188.251 27.2173 187.078 24.7233L190.599 22.7427C191.059 24.1076 192.086 24.7889 193.679 24.7866C195.126 24.7866 195.85 24.3354 195.85 23.4329C195.85 23.0162 195.573 22.6727 195.016 22.4127C194.364 22.1156 193.685 21.879 192.989 21.7058C192.178 21.4904 191.379 21.2276 190.599 20.9189C189.805 20.6054 189.106 20.0906 188.571 19.4252C187.999 18.6958 187.704 17.7875 187.738 16.8612C187.709 16.1572 187.849 15.4566 188.147 14.8183C188.445 14.1799 188.893 13.6227 189.452 13.1935C190.678 12.2759 192.182 11.8054 193.713 11.8598C194.931 11.8458 196.133 12.1443 197.204 12.7267C198.247 13.2995 199.108 14.1546 199.688 15.1941L196.227 17.0812C196.025 16.5887 195.675 16.1705 195.226 15.8841C194.778 15.5976 194.251 15.4568 193.719 15.4808C193.26 15.4595 192.805 15.5756 192.412 15.8142C192.248 15.913 192.113 16.0536 192.021 16.2218C191.929 16.3899 191.883 16.5796 191.889 16.7712Z" fill="white"/>
</g>
<defs>
<clipPath id="clip0">
<rect width="200" height="40.0473" fill="white"/>
</clipPath>
</defs>
</svg>
