<svg width="19" height="26" viewBox="0 0 19 26" fill="none" xmlns="http://www.w3.org/2000/svg">
<mask id="path-1-inside-1" fill="white">
<path d="M16.2248 2.49505C14.6352 0.839493 12.2148 0 9.03082 0C5.84685 0 3.42649 0.839493 1.8369 2.49505C0.238609 4.15966 0 6.10989 0 7.12428V18.8758C0 19.8902 0.238609 21.8404 1.8369 23.505C3.42649 25.1606 5.84685 26 9.03082 26C12.2148 26 14.6352 25.1606 16.2248 23.505C17.823 21.8404 18.0616 19.8902 18.0616 18.8758V7.12428C18.0616 6.10989 17.823 4.15966 16.2248 2.49505ZM9.03082 9.05806C8.37104 9.05806 7.83431 8.58151 7.83431 7.9957V5.71911C7.83431 5.13329 8.37104 4.65674 9.03082 4.65674C9.69061 4.65674 10.2273 5.13329 10.2273 5.71911V7.9957C10.2273 8.58151 9.69061 9.05806 9.03082 9.05806ZM17.117 18.8758C17.117 19.9253 16.7272 25.1613 9.03082 25.1613C1.33442 25.1613 0.944614 19.9253 0.944614 18.8758V7.12428C0.944614 6.09664 1.3195 1.05672 8.55852 0.846314V3.86522C7.60446 4.05678 6.8897 4.81492 6.8897 5.71911V7.9957C6.8897 8.89988 7.60446 9.65802 8.55852 9.84958V13.2954C8.55852 13.5271 8.76992 13.7148 9.03082 13.7148C9.29173 13.7148 9.50313 13.5271 9.50313 13.2954V9.84958C10.4572 9.65802 11.1719 8.89988 11.1719 7.9957V5.71911C11.1719 4.81492 10.4572 4.05678 9.50313 3.86522V0.846314C16.7422 1.05677 17.117 6.09664 17.117 7.12428V18.8758Z"/>
</mask>
<path d="M16.2248 2.49505L16.9461 1.80246L16.9461 1.80246L16.2248 2.49505ZM1.8369 2.49505L1.11557 1.80246L1.11556 1.80246L1.8369 2.49505ZM1.8369 23.505L1.11556 24.1976L1.11557 24.1976L1.8369 23.505ZM16.2248 23.505L16.9461 24.1976L16.9461 24.1976L16.2248 23.505ZM8.55852 0.846314H9.55852V-0.183174L8.52946 -0.153264L8.55852 0.846314ZM8.55852 3.86522L8.75537 4.84565L9.55852 4.68439V3.86522H8.55852ZM8.55852 9.84958H9.55852V9.03041L8.75537 8.86915L8.55852 9.84958ZM9.50313 9.84958L9.30628 8.86915L8.50313 9.03041V9.84958H9.50313ZM9.50313 3.86522H8.50313V4.68439L9.30628 4.84565L9.50313 3.86522ZM9.50313 0.846314L9.53219 -0.153264L8.50313 -0.183181V0.846314H9.50313ZM16.9461 1.80246C15.1043 -0.115744 12.379 -1 9.03082 -1V1C12.0506 1 14.166 1.79473 15.5034 3.18764L16.9461 1.80246ZM9.03082 -1C5.68262 -1 2.95734 -0.115745 1.11557 1.80246L2.55823 3.18764C3.89564 1.79473 6.01107 1 9.03082 1V-1ZM1.11556 1.80246C-0.730746 3.72539 -1 5.97279 -1 7.12428H1C1 6.24699 1.20797 4.59394 2.55823 3.18764L1.11556 1.80246ZM-1 7.12428V18.8758H1V7.12428H-1ZM-1 18.8758C-1 20.0273 -0.730746 22.2747 1.11556 24.1976L2.55823 22.8124C1.20797 21.4061 1 19.7531 1 18.8758H-1ZM1.11557 24.1976C2.95735 26.1158 5.68263 27 9.03082 27V25C6.01106 25 3.89563 24.2053 2.55823 22.8124L1.11557 24.1976ZM9.03082 27C12.379 27 15.1043 26.1158 16.9461 24.1976L15.5034 22.8124C14.166 24.2053 12.0506 25 9.03082 25V27ZM16.9461 24.1976C18.7924 22.2747 19.0616 20.0273 19.0616 18.8758H17.0616C17.0616 19.7531 16.8537 21.4061 15.5034 22.8124L16.9461 24.1976ZM19.0616 18.8758V7.12428H17.0616V18.8758H19.0616ZM19.0616 7.12428C19.0616 5.97279 18.7924 3.72539 16.9461 1.80246L15.5034 3.18764C16.8537 4.59394 17.0616 6.24699 17.0616 7.12428H19.0616ZM9.03082 8.05806C8.94101 8.05806 8.87931 8.02561 8.8491 7.99878C8.82056 7.97344 8.83431 7.97021 8.83431 7.9957H6.83431C6.83431 9.24226 7.93386 10.0581 9.03082 10.0581V8.05806ZM8.83431 7.9957V5.71911H6.83431V7.9957H8.83431ZM8.83431 5.71911C8.83431 5.7446 8.82056 5.74136 8.8491 5.71602C8.87931 5.6892 8.94101 5.65674 9.03082 5.65674V3.65674C7.93386 3.65674 6.83431 4.47254 6.83431 5.71911H8.83431ZM9.03082 5.65674C9.12064 5.65674 9.18234 5.6892 9.21255 5.71602C9.24109 5.74136 9.22734 5.7446 9.22734 5.71911H11.2273C11.2273 4.47254 10.1278 3.65674 9.03082 3.65674V5.65674ZM9.22734 5.71911V7.9957H11.2273V5.71911H9.22734ZM9.22734 7.9957C9.22734 7.97021 9.24109 7.97344 9.21255 7.99878C9.18234 8.02561 9.12064 8.05806 9.03082 8.05806V10.0581C10.1278 10.0581 11.2273 9.24226 11.2273 7.9957H9.22734ZM16.117 18.8758C16.117 19.3068 16.0317 20.6272 15.1546 21.8195C14.3196 22.9545 12.6273 24.1613 9.03082 24.1613V26.1613C13.1307 26.1613 15.4815 24.7501 16.7656 23.0047C18.0075 21.3166 18.117 19.4943 18.117 18.8758H16.117ZM9.03082 24.1613C5.43432 24.1613 3.74201 22.9545 2.90708 21.8195C2.02994 20.6272 1.94461 19.3068 1.94461 18.8758H-0.055386C-0.055386 19.4943 0.0541907 21.3166 1.29606 23.0047C2.58013 24.7501 4.93093 26.1613 9.03082 26.1613V24.1613ZM1.94461 18.8758V7.12428H-0.055386V18.8758H1.94461ZM1.94461 7.12428C1.94461 6.70369 2.02629 5.42801 2.85391 4.2555C3.64171 3.13941 5.22804 1.94354 8.58757 1.84589L8.52946 -0.153264C4.64997 -0.0405053 2.42935 1.38878 1.21996 3.10216C0.0503796 4.75913 -0.055386 6.51723 -0.055386 7.12428H1.94461ZM7.55852 0.846314V3.86522H9.55852V0.846314H7.55852ZM8.36166 2.88479C7.03362 3.15144 5.8897 4.24956 5.8897 5.71911H7.8897C7.8897 5.38028 8.17529 4.96213 8.75537 4.84565L8.36166 2.88479ZM5.8897 5.71911V7.9957H7.8897V5.71911H5.8897ZM5.8897 7.9957C5.8897 9.46524 7.03362 10.5634 8.36166 10.83L8.75537 8.86915C8.17529 8.75268 7.8897 8.33453 7.8897 7.9957H5.8897ZM7.55852 9.84958V13.2954H9.55852V9.84958H7.55852ZM7.55852 13.2954C7.55852 14.1879 8.33274 14.7148 9.03082 14.7148V12.7148C9.20711 12.7148 9.55852 12.8664 9.55852 13.2954H7.55852ZM9.03082 14.7148C9.72891 14.7148 10.5031 14.1879 10.5031 13.2954H8.50313C8.50313 12.8664 8.85454 12.7148 9.03082 12.7148V14.7148ZM10.5031 13.2954V9.84958H8.50313V13.2954H10.5031ZM9.69999 10.83C11.028 10.5634 12.1719 9.46524 12.1719 7.9957H10.1719C10.1719 8.33453 9.88636 8.75268 9.30628 8.86915L9.69999 10.83ZM12.1719 7.9957V5.71911H10.1719V7.9957H12.1719ZM12.1719 5.71911C12.1719 4.24956 11.028 3.15144 9.69999 2.88479L9.30628 4.84565C9.88636 4.96213 10.1719 5.38028 10.1719 5.71911H12.1719ZM10.5031 3.86522V0.846314H8.50313V3.86522H10.5031ZM9.47407 1.84589C12.8336 1.94356 14.42 3.13944 15.2078 4.25552C16.0354 5.42802 16.117 6.70368 16.117 7.12428H18.117C18.117 6.51723 18.0113 4.75915 16.8417 3.10219C15.6323 1.38881 13.4117 -0.0404754 9.53219 -0.153264L9.47407 1.84589ZM16.117 7.12428V18.8758H18.117V7.12428H16.117Z" fill="white" mask="url(#path-1-inside-1)"/>
<line x1="6.19096" y1="14.096" x2="9.38419" y2="17.2893" stroke="white"/>
<line x1="8.67721" y1="17.289" x2="11.8704" y2="14.0958" stroke="white"/>
</svg>
